<svg width="600" height="189" viewBox="0 0 600 189" fill="none" xmlns="http://www.w3.org/2000/svg">
<path d="M56.9403 174.759C34.28 172.891 -10.5134 163.891 -30 159.11L-17.5086 -44L610.56 -41.0658C632.212 -9.33332 642.896 190.172 610.56 169.542C588.076 155.198 480.15 151.937 406.7 171.824C334.918 191.26 299.274 192.364 272.792 184.213C251.607 177.693 215.332 164.326 178.357 165.63C147.378 169.108 104.408 178.671 56.9403 174.759Z" fill="#080707"/>
<g opacity="0.15">
<mask id="path-2-outside-1_114_637" maskUnits="userSpaceOnUse" x="-196" y="93" width="835" height="68" fill="black">
<rect fill="white" x="-196" y="93" width="835" height="68"/>
<path d="M-188.694 158.729C-192.248 158.729 -194.891 155.995 -194.891 152.441V105.686C-194.891 99.3063 -191.337 95.5696 -185.048 95.5696C-180.491 95.5696 -177.119 98.3038 -175.387 102.861L-161.534 139.772H-161.443L-147.499 102.678C-145.858 98.2127 -142.486 95.5696 -138.294 95.5696C-132.096 95.5696 -128.633 99.1241 -128.633 105.322V152.441C-128.633 155.995 -131.276 158.729 -134.83 158.729C-138.476 158.729 -141.119 155.995 -141.119 152.441V118.263H-141.21L-153.423 151.438C-154.881 155.357 -157.98 157.635 -161.808 157.635C-165.635 157.635 -168.734 155.448 -170.192 151.438L-182.405 118.263H-182.496V152.441C-182.496 155.995 -185.139 158.729 -188.694 158.729ZM-86.8171 159.458C-106.959 159.458 -117.713 147.337 -117.713 127.559C-117.713 107.691 -106.777 94.8405 -86.4525 94.8405C-66.4019 94.8405 -55.6475 107.235 -55.6475 127.013C-55.6475 146.881 -66.5842 159.458 -86.8171 159.458ZM-86.6348 147.61C-76.7918 147.61 -71.1411 140.137 -71.1411 127.104C-71.1411 114.071 -76.7918 106.597 -86.6348 106.597C-96.4779 106.597 -102.22 114.071 -102.22 127.104C-102.22 140.137 -96.4779 147.61 -86.6348 147.61ZM-23.6683 158.729C-28.9544 158.729 -32.8733 155.904 -34.5139 150.891L-49.5518 105.23C-51.2835 99.8532 -47.6379 95.5696 -42.6252 95.5696C-39.0708 95.5696 -36.5189 97.6658 -35.4252 101.129L-23.3037 140.046H-22.848L-10.4531 100.491C-9.5417 97.4835 -6.89866 95.5696 -3.79993 95.5696C1.57729 95.5696 4.03805 99.8532 2.39754 104.684L-12.8227 150.8C-14.4632 155.813 -18.4733 158.729 -23.6683 158.729ZM12.3972 102.952C12.3972 98.7595 15.5871 95.5696 19.7795 95.5696C24.063 95.5696 27.1618 98.7595 27.1618 102.952V151.256C27.1618 155.448 24.063 158.729 19.7795 158.729C15.5871 158.729 12.3972 155.448 12.3972 151.256V102.952ZM76.5009 145.787C79.9642 145.787 82.5161 148.339 82.5161 151.894C82.5161 155.357 79.9642 158 76.5009 158H48.8857C44.4198 158 41.4123 154.992 41.4123 150.527V103.772C41.4123 99.3063 44.4198 96.2987 48.8857 96.2987H76.1363C79.5996 96.2987 82.2426 98.9418 82.2426 102.405C82.2426 105.868 79.5996 108.511 76.1363 108.511H56.2679V120.268H72.7642C76.2274 120.268 78.8705 122.911 78.8705 126.375C78.8705 129.838 76.2274 132.481 72.7642 132.481H56.2679V145.787H76.5009ZM108.526 159.276C103.422 159.276 97.5889 158.273 93.7611 156.451C91.0269 155.357 89.2952 153.443 89.2952 150.8C89.2952 147.701 91.6649 144.785 95.5838 144.785C99.1383 144.785 101.69 147.519 108.617 147.519C113.447 147.519 116.546 145.514 116.546 141.322C116.546 130.385 90.2066 133.575 90.2066 113.342C90.2066 101.038 99.9585 95.0228 112.353 95.0228C116.728 95.0228 121.194 95.843 124.748 97.119C128.485 98.3949 129.852 100.4 129.852 102.861C129.852 105.777 127.665 108.694 124.11 108.694C121.376 108.694 118.186 106.415 112.445 106.415C108.07 106.415 105.153 108.42 105.153 112.157C105.153 123.003 131.493 119.995 131.493 139.863C131.493 152.805 121.103 159.276 108.526 159.276ZM193.39 133.939C193.39 150.435 183.365 159.458 166.869 159.458C150.828 159.458 141.259 151.438 141.259 133.757V102.952C141.259 98.7595 144.358 95.5696 148.641 95.5696C152.834 95.5696 155.932 98.7595 155.932 102.952V135.671C155.932 143.965 160.398 147.519 167.416 147.519C174.525 147.519 178.717 143.965 178.717 135.944V102.861C178.717 98.7595 181.907 95.5696 186.099 95.5696C190.201 95.5696 193.39 98.7595 193.39 102.861V133.939ZM249.976 122.911C254.715 122.911 257.905 126.101 257.905 130.841V149.889C257.905 153.534 255.535 155.813 252.254 156.906C247.059 158.729 241.591 159.458 234.847 159.458C216.163 159.458 203.677 147.884 203.677 128.197C203.677 106.324 217.986 94.8405 235.94 94.8405C241.226 94.8405 246.604 95.7519 251.343 97.3924C254.715 98.5772 255.809 100.765 255.809 103.043C255.809 106.142 253.804 109.423 250.614 109.423C247.697 109.423 244.325 106.689 237.763 106.689C227.009 106.689 218.989 113.706 218.989 127.468C218.989 139.316 224.639 147.61 236.578 147.61C240.042 147.61 242.411 147.428 245.054 146.881V134.395H238.492C234.756 134.395 231.93 131.934 231.93 128.653C231.93 125.372 234.756 122.911 238.492 122.911H249.976ZM312.99 122.911C317.729 122.911 320.919 126.101 320.919 130.841V149.889C320.919 153.534 318.55 155.813 315.269 156.906C310.074 158.729 304.605 159.458 297.861 159.458C279.177 159.458 266.691 147.884 266.691 128.197C266.691 106.324 281 94.8405 298.955 94.8405C304.241 94.8405 309.618 95.7519 314.357 97.3924C317.729 98.5772 318.823 100.765 318.823 103.043C318.823 106.142 316.818 109.423 313.628 109.423C310.712 109.423 307.339 106.689 300.777 106.689C290.023 106.689 282.003 113.706 282.003 127.468C282.003 139.316 287.653 147.61 299.593 147.61C303.056 147.61 305.426 147.428 308.069 146.881V134.395H301.507C297.77 134.395 294.945 131.934 294.945 128.653C294.945 125.372 297.77 122.911 301.507 122.911H312.99ZM368.075 145.787C371.539 145.787 374.09 148.339 374.09 151.894C374.09 155.357 371.539 158 368.075 158H340.46C335.994 158 332.987 154.992 332.987 150.527V103.772C332.987 99.3063 335.994 96.2987 340.46 96.2987H367.711C371.174 96.2987 373.817 98.9418 373.817 102.405C373.817 105.868 371.174 108.511 367.711 108.511H347.842V120.268H364.339C367.802 120.268 370.445 122.911 370.445 126.375C370.445 129.838 367.802 132.481 364.339 132.481H347.842V145.787H368.075ZM400.1 159.276C394.996 159.276 389.163 158.273 385.335 156.451C382.601 155.357 380.87 153.443 380.87 150.8C380.87 147.701 383.239 144.785 387.158 144.785C390.713 144.785 393.265 147.519 400.191 147.519C405.021 147.519 408.12 145.514 408.12 141.322C408.12 130.385 381.781 133.575 381.781 113.342C381.781 101.038 391.533 95.0228 403.928 95.0228C408.302 95.0228 412.768 95.843 416.323 97.119C420.059 98.3949 421.427 100.4 421.427 102.861C421.427 105.777 419.239 108.694 415.685 108.694C412.951 108.694 409.761 106.415 404.019 106.415C399.644 106.415 396.728 108.42 396.728 112.157C396.728 123.003 423.067 119.995 423.067 139.863C423.067 152.805 412.677 159.276 400.1 159.276ZM460.448 108.511V151.256C460.448 155.539 457.259 158.729 452.975 158.729C448.783 158.729 445.593 155.539 445.593 151.256V108.511H433.471C430.008 108.511 427.365 105.868 427.365 102.314C427.365 98.8506 430.008 96.2987 433.471 96.2987H472.479C475.942 96.2987 478.494 98.8506 478.494 102.314C478.494 105.868 475.942 108.511 472.479 108.511H460.448ZM486.606 102.952C486.606 98.7595 489.796 95.5696 493.988 95.5696C498.272 95.5696 501.371 98.7595 501.371 102.952V151.256C501.371 155.448 498.272 158.729 493.988 158.729C489.796 158.729 486.606 155.448 486.606 151.256V102.952ZM543.236 159.458C523.094 159.458 512.34 147.337 512.34 127.559C512.34 107.691 523.277 94.8405 543.601 94.8405C563.651 94.8405 574.406 107.235 574.406 127.013C574.406 146.881 563.469 159.458 543.236 159.458ZM543.419 147.61C553.262 147.61 558.912 140.137 558.912 127.104C558.912 114.071 553.262 106.597 543.419 106.597C533.575 106.597 527.834 114.071 527.834 127.104C527.834 140.137 533.575 147.61 543.419 147.61ZM591.599 158.729C587.589 158.729 585.311 155.904 585.311 152.167V104.684C585.311 98.9418 588.592 95.6608 594.333 95.6608C597.523 95.6608 600.349 97.3013 602.08 99.9443L623.954 133.848H624.045V102.132C624.045 98.3949 626.779 95.5696 630.789 95.5696C634.526 95.5696 637.078 98.2127 637.078 101.949V150.435C637.078 155.722 634.161 158.638 628.875 158.638C626.05 158.638 623.498 157.18 621.857 154.628L598.435 118.172H598.343V152.167C598.343 155.904 595.336 158.729 591.599 158.729Z"/>
</mask>
<path d="M-175.387 102.861L-174.451 102.509L-174.453 102.506L-175.387 102.861ZM-161.534 139.772L-162.47 140.124L-162.227 140.772H-161.534V139.772ZM-161.443 139.772V140.772H-160.751L-160.507 140.124L-161.443 139.772ZM-147.499 102.678L-146.563 103.03L-146.56 103.023L-147.499 102.678ZM-141.119 118.263H-140.119V117.263H-141.119V118.263ZM-141.21 118.263V117.263H-141.908L-142.149 117.918L-141.21 118.263ZM-153.423 151.438L-152.486 151.787L-152.484 151.783L-153.423 151.438ZM-170.192 151.438L-169.253 151.096L-169.254 151.093L-170.192 151.438ZM-182.405 118.263L-181.467 117.918L-181.708 117.263H-182.405V118.263ZM-182.496 118.263V117.263H-183.496V118.263H-182.496ZM-188.694 157.729C-191.677 157.729 -193.891 155.462 -193.891 152.441H-195.891C-195.891 156.528 -192.82 159.729 -188.694 159.729V157.729ZM-193.891 152.441V105.686H-195.891V152.441H-193.891ZM-193.891 105.686C-193.891 102.677 -193.055 100.426 -191.609 98.9306C-190.167 97.44 -187.993 96.5696 -185.048 96.5696V94.5696C-188.392 94.5696 -191.139 95.5676 -193.047 97.5403C-194.95 99.5081 -195.891 102.315 -195.891 105.686H-193.891ZM-185.048 96.5696C-180.987 96.5696 -177.937 98.9657 -176.322 103.216L-174.453 102.506C-176.301 97.6419 -179.995 94.5696 -185.048 94.5696V96.5696ZM-176.324 103.212L-162.47 140.124L-160.598 139.421L-174.451 102.509L-176.324 103.212ZM-161.534 140.772H-161.443V138.772H-161.534V140.772ZM-160.507 140.124L-146.563 103.03L-148.435 102.327L-162.379 139.42L-160.507 140.124ZM-146.56 103.023C-145.035 98.8718 -141.988 96.5696 -138.294 96.5696V94.5696C-142.984 94.5696 -146.681 97.5535 -148.437 102.334L-146.56 103.023ZM-138.294 96.5696C-135.384 96.5696 -133.255 97.4002 -131.851 98.8237C-130.445 100.249 -129.633 102.405 -129.633 105.322H-127.633C-127.633 102.041 -128.552 99.3203 -130.427 97.4193C-132.304 95.5162 -135.006 94.5696 -138.294 94.5696V96.5696ZM-129.633 105.322V152.441H-127.633V105.322H-129.633ZM-129.633 152.441C-129.633 155.462 -131.847 157.729 -134.83 157.729V159.729C-130.705 159.729 -127.633 156.528 -127.633 152.441H-129.633ZM-134.83 157.729C-137.914 157.729 -140.119 155.452 -140.119 152.441H-142.119C-142.119 156.538 -139.038 159.729 -134.83 159.729V157.729ZM-140.119 152.441V118.263H-142.119V152.441H-140.119ZM-141.119 117.263H-141.21V119.263H-141.119V117.263ZM-142.149 117.918L-154.361 151.093L-152.484 151.783L-140.272 118.609L-142.149 117.918ZM-154.36 151.089C-155.689 154.661 -158.443 156.635 -161.808 156.635V158.635C-157.517 158.635 -154.073 156.053 -152.486 151.787L-154.36 151.089ZM-161.808 156.635C-165.183 156.635 -167.927 154.742 -169.253 151.096L-171.132 151.78C-169.541 156.155 -166.088 158.635 -161.808 158.635V156.635ZM-169.254 151.093L-181.467 117.918L-183.343 118.609L-171.131 151.783L-169.254 151.093ZM-182.405 117.263H-182.496V119.263H-182.405V117.263ZM-183.496 118.263V152.441H-181.496V118.263H-183.496ZM-183.496 152.441C-183.496 155.462 -185.711 157.729 -188.694 157.729V159.729C-184.568 159.729 -181.496 156.528 -181.496 152.441H-183.496ZM-86.8171 158.458C-96.6844 158.458 -104.118 155.495 -109.092 150.238C-114.074 144.973 -116.713 137.274 -116.713 127.559H-118.713C-118.713 137.622 -115.976 145.873 -110.545 151.613C-105.106 157.361 -97.0915 160.458 -86.8171 160.458V158.458ZM-116.713 127.559C-116.713 117.802 -114.029 109.891 -108.971 104.429C-103.923 98.9776 -96.3967 95.8405 -86.4525 95.8405V93.8405C-96.8324 93.8405 -104.937 97.1287 -110.438 103.07C-115.929 109 -118.713 117.449 -118.713 127.559H-116.713ZM-86.4525 95.8405C-76.6386 95.8405 -69.2274 98.8678 -64.2624 104.192C-59.2874 109.527 -56.6475 117.298 -56.6475 127.013H-54.6475C-54.6475 116.95 -57.3848 108.635 -62.7997 102.828C-68.2245 97.0107 -76.2159 93.8405 -86.4525 93.8405V95.8405ZM-56.6475 127.013C-56.6475 136.77 -59.3314 144.61 -64.3753 150.003C-69.4098 155.386 -76.9134 158.458 -86.8171 158.458V160.458C-76.4879 160.458 -68.4067 157.242 -62.9146 151.369C-57.4319 145.507 -54.6475 137.124 -54.6475 127.013H-56.6475ZM-86.6348 148.61C-81.4309 148.61 -77.249 146.619 -74.399 142.847C-71.5785 139.115 -70.1411 133.746 -70.1411 127.104H-72.1411C-72.1411 133.495 -73.5291 138.379 -75.9947 141.641C-78.4307 144.865 -81.9957 146.61 -86.6348 146.61V148.61ZM-70.1411 127.104C-70.1411 120.462 -71.5785 115.093 -74.399 111.36C-77.249 107.589 -81.4309 105.597 -86.6348 105.597V107.597C-81.9957 107.597 -78.4307 109.343 -75.9947 112.566C-73.5291 115.829 -72.1411 120.713 -72.1411 127.104H-70.1411ZM-86.6348 105.597C-91.8379 105.597 -96.0409 107.588 -98.9137 111.357C-101.758 115.089 -103.22 120.458 -103.22 127.104H-101.22C-101.22 120.716 -99.8102 115.833 -97.3231 112.569C-94.8641 109.343 -91.2748 107.597 -86.6348 107.597V105.597ZM-103.22 127.104C-103.22 133.749 -101.758 139.119 -98.9137 142.851C-96.0409 146.619 -91.8379 148.61 -86.6348 148.61V146.61C-91.2748 146.61 -94.8641 144.864 -97.3231 141.638C-99.8102 138.375 -101.22 133.491 -101.22 127.104H-103.22ZM-34.5139 150.891L-33.5634 150.58L-33.564 150.578L-34.5139 150.891ZM-49.5518 105.23L-50.5037 105.537L-50.5016 105.543L-49.5518 105.23ZM-35.4252 101.129L-34.4705 100.832L-34.4717 100.828L-35.4252 101.129ZM-23.3037 140.046L-24.2585 140.343L-24.0396 141.046H-23.3037V140.046ZM-22.848 140.046V141.046H-22.1134L-21.8938 140.345L-22.848 140.046ZM-10.4531 100.491L-9.49881 100.79L-9.49606 100.781L-10.4531 100.491ZM2.39754 104.684L1.45062 104.362L1.44792 104.37L2.39754 104.684ZM-12.8227 150.8L-13.7723 150.487L-13.7731 150.489L-12.8227 150.8ZM-23.6683 157.729C-26.1292 157.729 -28.2189 157.074 -29.8727 155.879C-31.5261 154.685 -32.8005 152.911 -33.5635 150.58L-35.4642 151.202C-34.5867 153.884 -33.0814 156.029 -31.0436 157.501C-29.0062 158.972 -26.4935 159.729 -23.6683 159.729V157.729ZM-33.564 150.578L-48.602 104.918L-50.5016 105.543L-35.4637 151.204L-33.564 150.578ZM-48.6 104.924C-49.3738 102.521 -48.9297 100.45 -47.8208 98.9877C-46.703 97.5134 -44.8437 96.5696 -42.6252 96.5696V94.5696C-45.4194 94.5696 -47.8893 95.7677 -49.4145 97.7794C-50.9486 99.8028 -51.4615 102.563 -50.5037 105.537L-48.6 104.924ZM-42.6252 96.5696C-41.0537 96.5696 -39.7489 97.0294 -38.72 97.8372C-37.6854 98.6494 -36.8759 99.8562 -36.3788 101.43L-34.4717 100.828C-35.0683 98.9387 -36.0815 97.3658 -37.485 96.2641C-38.8939 95.1579 -40.6424 94.5696 -42.6252 94.5696V96.5696ZM-36.38 101.426L-24.2585 140.343L-22.349 139.748L-34.4705 100.832L-36.38 101.426ZM-23.3037 141.046H-22.848V139.046H-23.3037V141.046ZM-21.8938 140.345L-9.49884 100.79L-11.4073 100.192L-23.8023 139.747L-21.8938 140.345ZM-9.49606 100.781C-8.71449 98.2019 -6.46516 96.5696 -3.79993 96.5696V94.5696C-7.33215 94.5696 -10.3689 96.7651 -11.4101 100.201L-9.49606 100.781ZM-3.79993 96.5696C-1.3913 96.5696 0.22261 97.5149 1.09058 98.858C1.97209 100.222 2.19537 102.169 1.45065 104.362L3.34442 105.005C4.2402 102.368 4.05338 99.7578 2.77032 97.7724C1.47372 95.7661 -0.831345 94.5696 -3.79993 94.5696V96.5696ZM1.44792 104.37L-13.7723 150.487L-11.8731 151.113L3.34715 104.997L1.44792 104.37ZM-13.7731 150.489C-15.2808 155.096 -18.9113 157.729 -23.6683 157.729V159.729C-18.0354 159.729 -13.6456 156.529 -11.8723 151.111L-13.7731 150.489ZM13.3972 102.952C13.3972 99.3118 16.1394 96.5696 19.7795 96.5696V94.5696C15.0348 94.5696 11.3972 98.2072 11.3972 102.952H13.3972ZM19.7795 96.5696C23.5026 96.5696 26.1618 99.3036 26.1618 102.952H28.1618C28.1618 98.2154 24.6235 94.5696 19.7795 94.5696V96.5696ZM26.1618 102.952V151.256H28.1618V102.952H26.1618ZM26.1618 151.256C26.1618 154.92 23.4866 157.729 19.7795 157.729V159.729C24.6395 159.729 28.1618 155.976 28.1618 151.256H26.1618ZM19.7795 157.729C16.1554 157.729 13.3972 154.912 13.3972 151.256H11.3972C11.3972 155.984 15.0188 159.729 19.7795 159.729V157.729ZM13.3972 151.256V102.952H11.3972V151.256H13.3972ZM56.2679 108.511V107.511H55.2679V108.511H56.2679ZM56.2679 120.268H55.2679V121.268H56.2679V120.268ZM56.2679 132.481V131.481H55.2679V132.481H56.2679ZM56.2679 145.787H55.2679V146.787H56.2679V145.787ZM76.5009 146.787C79.4019 146.787 81.5161 148.882 81.5161 151.894H83.5161C83.5161 147.797 80.5264 144.787 76.5009 144.787V146.787ZM81.5161 151.894C81.5161 154.825 79.3921 157 76.5009 157V159C80.5362 159 83.5161 155.889 83.5161 151.894H81.5161ZM76.5009 157H48.8857V159H76.5009V157ZM48.8857 157C46.8826 157 45.2803 156.33 44.1814 155.231C43.0824 154.132 42.4122 152.53 42.4122 150.527H40.4122C40.4122 152.989 41.2459 155.124 42.7672 156.645C44.2885 158.166 46.4229 159 48.8857 159V157ZM42.4122 150.527V103.772H40.4122V150.527H42.4122ZM42.4122 103.772C42.4122 101.769 43.0824 100.167 44.1814 99.0679C45.2803 97.9689 46.8826 97.2987 48.8857 97.2987V95.2987C46.4229 95.2987 44.2885 96.1324 42.7672 97.6537C41.2459 99.1749 40.4122 101.309 40.4122 103.772H42.4122ZM48.8857 97.2987H76.1363V95.2987H48.8857V97.2987ZM76.1363 97.2987C79.0473 97.2987 81.2426 99.4941 81.2426 102.405H83.2426C83.2426 98.3895 80.1519 95.2987 76.1363 95.2987V97.2987ZM81.2426 102.405C81.2426 105.316 79.0473 107.511 76.1363 107.511V109.511C80.1519 109.511 83.2426 106.421 83.2426 102.405H81.2426ZM76.1363 107.511H56.2679V109.511H76.1363V107.511ZM55.2679 108.511V120.268H57.2679V108.511H55.2679ZM56.2679 121.268H72.7642V119.268H56.2679V121.268ZM72.7642 121.268C75.6751 121.268 77.8705 123.464 77.8705 126.375H79.8705C79.8705 122.359 76.7797 119.268 72.7642 119.268V121.268ZM77.8705 126.375C77.8705 129.286 75.6751 131.481 72.7642 131.481V133.481C76.7797 133.481 79.8705 130.39 79.8705 126.375H77.8705ZM72.7642 131.481H56.2679V133.481H72.7642V131.481ZM55.2679 132.481V145.787H57.2679V132.481H55.2679ZM56.2679 146.787H76.5009V144.787H56.2679V146.787ZM93.761 156.451L94.191 155.548L94.1621 155.534L94.1324 155.522L93.761 156.451ZM124.748 97.119L124.411 98.0602L124.418 98.0628L124.425 98.0653L124.748 97.119ZM108.526 158.276C103.514 158.276 97.8411 157.286 94.191 155.548L93.3311 157.353C97.3367 159.261 103.33 160.276 108.526 160.276V158.276ZM94.1324 155.522C91.6325 154.522 90.2952 152.897 90.2952 150.8H88.2952C88.2952 153.989 90.4212 156.192 93.3897 157.379L94.1324 155.522ZM90.2952 150.8C90.2952 148.224 92.2462 145.785 95.5838 145.785V143.785C91.0835 143.785 88.2952 147.179 88.2952 150.8H90.2952ZM95.5838 145.785C97.1416 145.785 98.4453 146.373 100.505 147.095C102.517 147.801 105.003 148.519 108.617 148.519V146.519C105.304 146.519 103.051 145.869 101.167 145.208C99.33 144.564 97.5805 143.785 95.5838 143.785V145.785ZM108.617 148.519C111.148 148.519 113.373 147.997 114.99 146.795C116.652 145.558 117.546 143.695 117.546 141.322H115.546C115.546 143.141 114.891 144.376 113.796 145.19C112.655 146.039 110.916 146.519 108.617 146.519V148.519ZM117.546 141.322C117.546 138.081 115.552 135.965 112.963 134.335C110.426 132.737 106.989 131.413 103.802 129.913C100.536 128.376 97.3936 126.604 95.0622 124.039C92.7614 121.507 91.2066 118.153 91.2066 113.342H89.2066C89.2066 118.647 90.9443 122.481 93.5821 125.384C96.1893 128.253 99.6314 130.161 102.95 131.723C106.348 133.322 109.496 134.515 111.897 136.027C114.248 137.507 115.546 139.094 115.546 141.322H117.546ZM91.2066 113.342C91.2066 107.487 93.5104 103.207 97.2385 100.363C101.001 97.4931 106.302 96.0228 112.353 96.0228V94.0228C106.01 94.0228 100.237 95.5601 96.0254 98.7733C91.7788 102.013 89.2066 106.893 89.2066 113.342H91.2066ZM112.353 96.0228C116.614 96.0228 120.966 96.8236 124.411 98.0602L125.086 96.1778C121.422 94.8625 116.842 94.0228 112.353 94.0228V96.0228ZM124.425 98.0653C126.186 98.6666 127.28 99.4039 127.934 100.187C128.572 100.951 128.852 101.831 128.852 102.861H130.852C130.852 101.43 130.448 100.077 129.469 98.9045C128.505 97.7505 127.047 96.8473 125.072 96.1726L124.425 98.0653ZM128.852 102.861C128.852 105.32 127.022 107.694 124.11 107.694V109.694C128.307 109.694 130.852 106.235 130.852 102.861H128.852ZM124.11 107.694C123.559 107.694 122.948 107.578 122.208 107.374C121.449 107.164 120.672 106.897 119.699 106.598C117.797 106.015 115.457 105.415 112.445 105.415V107.415C115.174 107.415 117.3 107.955 119.112 108.51C119.995 108.781 120.888 109.084 121.675 109.302C122.482 109.524 123.294 109.694 124.11 109.694V107.694ZM112.445 105.415C110.121 105.415 108.06 105.946 106.554 107.088C105.012 108.258 104.153 109.997 104.153 112.157H106.153C106.153 110.58 106.753 109.448 107.763 108.681C108.809 107.887 110.393 107.415 112.445 107.415V105.415ZM104.153 112.157C104.153 115.377 106.151 117.487 108.736 119.114C111.274 120.711 114.709 122.037 117.899 123.532C121.166 125.064 124.31 126.823 126.642 129.355C128.942 131.853 130.493 135.148 130.493 139.863H132.493C132.493 134.644 130.751 130.865 128.113 128C125.506 125.169 122.065 123.277 118.748 121.721C115.352 120.129 112.202 118.932 109.802 117.421C107.449 115.941 106.153 114.36 106.153 112.157H104.153ZM130.493 139.863C130.493 146.034 128.031 150.592 124.113 153.633C120.163 156.697 114.657 158.276 108.526 158.276V160.276C114.972 160.276 120.949 158.619 125.339 155.213C129.759 151.783 132.493 146.634 132.493 139.863H130.493ZM192.391 133.939C192.391 141.981 189.952 148.072 185.629 152.158C181.297 156.252 174.941 158.458 166.869 158.458V160.458C175.293 160.458 182.198 158.153 187.003 153.612C191.816 149.062 194.391 142.393 194.391 133.939H192.391ZM166.869 158.458C159.003 158.458 152.888 156.492 148.741 152.516C144.601 148.548 142.259 142.422 142.259 133.757H140.259C140.259 142.773 142.702 149.498 147.357 153.96C152.004 158.414 158.695 160.458 166.869 160.458V158.458ZM142.259 133.757V102.952H140.259V133.757H142.259ZM142.259 102.952C142.259 99.3036 144.918 96.5696 148.641 96.5696V94.5696C143.797 94.5696 140.259 98.2154 140.259 102.952H142.259ZM148.641 96.5696C152.265 96.5696 154.932 99.2953 154.932 102.952H156.932C156.932 98.2237 153.402 94.5696 148.641 94.5696V96.5696ZM154.932 102.952V135.671H156.932V102.952H154.932ZM154.932 135.671C154.932 139.992 156.098 143.252 158.348 145.424C160.59 147.59 163.75 148.519 167.416 148.519V146.519C164.064 146.519 161.482 145.671 159.737 143.986C157.999 142.307 156.932 139.644 156.932 135.671H154.932ZM167.416 148.519C171.124 148.519 174.243 147.591 176.431 145.455C178.624 143.314 179.717 140.12 179.717 135.944H177.717C177.717 139.789 176.714 142.383 175.034 144.024C173.348 145.669 170.816 146.519 167.416 146.519V148.519ZM179.717 135.944V102.861H177.717V135.944H179.717ZM179.717 102.861C179.717 99.3199 182.451 96.5696 186.099 96.5696V94.5696C181.363 94.5696 177.717 98.1991 177.717 102.861H179.717ZM186.099 96.5696C189.648 96.5696 192.391 99.3118 192.391 102.861H194.391C194.391 98.2072 190.753 94.5696 186.099 94.5696V96.5696ZM192.391 102.861V133.939H194.391V102.861H192.391ZM252.254 156.906L251.938 155.958L251.931 155.96L251.923 155.963L252.254 156.906ZM251.343 97.3924L251.674 96.4489L251.67 96.4474L251.343 97.3924ZM245.054 146.881L245.257 147.86L246.054 147.695V146.881H245.054ZM245.054 134.395H246.054V133.395H245.054V134.395ZM249.976 123.911C252.116 123.911 253.832 124.627 255.011 125.806C256.189 126.984 256.905 128.701 256.905 130.841H258.905C258.905 128.241 258.026 125.993 256.425 124.392C254.824 122.79 252.575 121.911 249.976 121.911V123.911ZM256.905 130.841V149.889H258.905V130.841H256.905ZM256.905 149.889C256.905 151.477 256.396 152.724 255.553 153.701C254.697 154.693 253.456 155.452 251.938 155.958L252.571 157.855C254.334 157.267 255.918 156.34 257.067 155.008C258.23 153.66 258.905 151.946 258.905 149.889H256.905ZM251.923 155.963C246.866 157.737 241.517 158.458 234.847 158.458V160.458C241.666 160.458 247.253 159.721 252.585 157.85L251.923 155.963ZM234.847 158.458C225.712 158.458 218.19 155.632 212.956 150.496C207.725 145.364 204.677 137.824 204.677 128.197H202.677C202.677 138.257 205.872 146.348 211.555 151.924C217.235 157.497 225.298 160.458 234.847 160.458V158.458ZM204.677 128.197C204.677 117.488 208.174 109.424 213.769 104.037C219.373 98.6415 227.175 95.8405 235.94 95.8405V93.8405C226.752 93.8405 218.422 96.7813 212.382 102.596C206.335 108.419 202.677 117.034 202.677 128.197H204.677ZM235.94 95.8405C241.117 95.8405 246.384 96.734 251.016 98.3374L251.67 96.4474C246.824 94.7698 241.336 93.8405 235.94 93.8405V95.8405ZM251.011 98.3359C252.545 98.8747 253.473 99.6089 254.025 100.386C254.576 101.164 254.809 102.066 254.809 103.043H256.809C256.809 101.741 256.494 100.411 255.656 99.2291C254.818 98.0468 253.513 97.0949 251.674 96.4489L251.011 98.3359ZM254.809 103.043C254.809 104.392 254.368 105.774 253.606 106.797C252.853 107.808 251.829 108.423 250.614 108.423V110.423C252.588 110.423 254.162 109.397 255.209 107.993C256.247 106.601 256.809 104.793 256.809 103.043H254.809ZM250.614 108.423C250.034 108.423 249.389 108.286 248.594 108.04C247.772 107.786 246.947 107.469 245.875 107.108C243.793 106.406 241.194 105.689 237.763 105.689V107.689C240.894 107.689 243.263 108.338 245.236 109.003C246.192 109.326 247.167 109.692 248.003 109.951C248.865 110.218 249.736 110.423 250.614 110.423V108.423ZM237.763 105.689C232.165 105.689 227.194 107.52 223.623 111.224C220.054 114.927 217.989 120.393 217.989 127.468H219.989C219.989 120.782 221.933 115.858 225.063 112.612C228.191 109.367 232.607 107.689 237.763 107.689V105.689ZM217.989 127.468C217.989 133.535 219.434 138.824 222.532 142.615C225.656 146.437 230.357 148.61 236.578 148.61V146.61C230.86 146.61 226.767 144.636 224.081 141.349C221.369 138.031 219.989 133.25 219.989 127.468H217.989ZM236.578 148.61C240.083 148.61 242.526 148.425 245.257 147.86L244.852 145.902C242.297 146.43 240 146.61 236.578 146.61V148.61ZM246.054 146.881V134.395H244.054V146.881H246.054ZM245.054 133.395H238.492V135.395H245.054V133.395ZM238.492 133.395C235.177 133.395 232.93 131.259 232.93 128.653H230.93C230.93 132.609 234.334 135.395 238.492 135.395V133.395ZM232.93 128.653C232.93 126.047 235.177 123.911 238.492 123.911V121.911C234.334 121.911 230.93 124.697 230.93 128.653H232.93ZM238.492 123.911H249.976V121.911H238.492V123.911ZM315.269 156.906L314.952 155.958L314.945 155.96L314.938 155.963L315.269 156.906ZM314.357 97.3924L314.689 96.4489L314.684 96.4474L314.357 97.3924ZM308.069 146.881L308.271 147.86L309.069 147.695V146.881H308.069ZM308.069 134.395H309.069V133.395H308.069V134.395ZM312.99 123.911C315.13 123.911 316.846 124.627 318.025 125.806C319.203 126.984 319.919 128.701 319.919 130.841H321.919C321.919 128.241 321.04 125.993 319.439 124.392C317.838 122.79 315.589 121.911 312.99 121.911V123.911ZM319.919 130.841V149.889H321.919V130.841H319.919ZM319.919 149.889C319.919 151.477 319.41 152.724 318.567 153.701C317.712 154.693 316.47 155.452 314.952 155.958L315.585 157.855C317.348 157.267 318.932 156.34 320.081 155.008C321.244 153.66 321.919 151.946 321.919 149.889H319.919ZM314.938 155.963C309.88 157.737 304.531 158.458 297.861 158.458V160.458C304.68 160.458 310.267 159.721 315.6 157.85L314.938 155.963ZM297.861 158.458C288.726 158.458 281.204 155.632 275.97 150.496C270.739 145.364 267.691 137.824 267.691 128.197H265.691C265.691 138.257 268.887 146.348 274.569 151.924C280.249 157.497 288.312 160.458 297.861 160.458V158.458ZM267.691 128.197C267.691 117.488 271.188 109.424 276.784 104.037C282.387 98.6415 290.189 95.8405 298.955 95.8405V93.8405C289.766 93.8405 281.436 96.7813 275.396 102.596C269.349 108.419 265.691 117.034 265.691 128.197H267.691ZM298.955 95.8405C304.131 95.8405 309.398 96.734 314.03 98.3374L314.684 96.4474C309.838 94.7698 304.35 93.8405 298.955 93.8405V95.8405ZM314.026 98.3359C315.559 98.8747 316.488 99.6089 317.039 100.386C317.59 101.164 317.823 102.066 317.823 103.043H319.823C319.823 101.741 319.509 100.411 318.67 99.2291C317.832 98.0468 316.527 97.0949 314.689 96.4489L314.026 98.3359ZM317.823 103.043C317.823 104.392 317.382 105.774 316.62 106.797C315.867 107.808 314.843 108.423 313.628 108.423V110.423C315.603 110.423 317.177 109.397 318.224 107.993C319.261 106.601 319.823 104.793 319.823 103.043H317.823ZM313.628 108.423C313.048 108.423 312.403 108.286 311.608 108.04C310.786 107.786 309.961 107.469 308.889 107.108C306.807 106.406 304.209 105.689 300.777 105.689V107.689C303.908 107.689 306.277 108.338 308.25 109.003C309.206 109.326 310.181 109.692 311.017 109.951C311.88 110.218 312.75 110.423 313.628 110.423V108.423ZM300.777 105.689C295.18 105.689 290.208 107.52 286.637 111.224C283.068 114.927 281.003 120.393 281.003 127.468H283.003C283.003 120.782 284.948 115.858 288.077 112.612C291.205 109.367 295.621 107.689 300.777 107.689V105.689ZM281.003 127.468C281.003 133.535 282.448 138.824 285.546 142.615C288.67 146.437 293.371 148.61 299.593 148.61V146.61C293.875 146.61 289.781 144.636 287.095 141.349C284.383 138.031 283.003 133.25 283.003 127.468H281.003ZM299.593 148.61C303.097 148.61 305.54 148.425 308.271 147.86L307.866 145.902C305.311 146.43 303.014 146.61 299.593 146.61V148.61ZM309.069 146.881V134.395H307.069V146.881H309.069ZM308.069 133.395H301.507V135.395H308.069V133.395ZM301.507 133.395C298.191 133.395 295.945 131.259 295.945 128.653H293.945C293.945 132.609 297.349 135.395 301.507 135.395V133.395ZM295.945 128.653C295.945 126.047 298.191 123.911 301.507 123.911V121.911C297.349 121.911 293.945 124.697 293.945 128.653H295.945ZM301.507 123.911H312.99V121.911H301.507V123.911ZM347.842 108.511V107.511H346.842V108.511H347.842ZM347.842 120.268H346.842V121.268H347.842V120.268ZM347.842 132.481V131.481H346.842V132.481H347.842ZM347.842 145.787H346.842V146.787H347.842V145.787ZM368.075 146.787C370.976 146.787 373.09 148.882 373.09 151.894H375.09C375.09 147.797 372.101 144.787 368.075 144.787V146.787ZM373.09 151.894C373.09 154.825 370.966 157 368.075 157V159C372.111 159 375.09 155.889 375.09 151.894H373.09ZM368.075 157H340.46V159H368.075V157ZM340.46 157C338.457 157 336.855 156.33 335.756 155.231C334.657 154.132 333.987 152.53 333.987 150.527H331.987C331.987 152.989 332.82 155.124 334.342 156.645C335.863 158.166 337.997 159 340.46 159V157ZM333.987 150.527V103.772H331.987V150.527H333.987ZM333.987 103.772C333.987 101.769 334.657 100.167 335.756 99.0679C336.855 97.9689 338.457 97.2987 340.46 97.2987V95.2987C337.997 95.2987 335.863 96.1324 334.342 97.6537C332.82 99.1749 331.987 101.309 331.987 103.772H333.987ZM340.46 97.2987H367.711V95.2987H340.46V97.2987ZM367.711 97.2987C370.622 97.2987 372.817 99.4941 372.817 102.405H374.817C374.817 98.3895 371.726 95.2987 367.711 95.2987V97.2987ZM372.817 102.405C372.817 105.316 370.622 107.511 367.711 107.511V109.511C371.726 109.511 374.817 106.421 374.817 102.405H372.817ZM367.711 107.511H347.842V109.511H367.711V107.511ZM346.842 108.511V120.268H348.842V108.511H346.842ZM347.842 121.268H364.339V119.268H347.842V121.268ZM364.339 121.268C367.25 121.268 369.445 123.464 369.445 126.375H371.445C371.445 122.359 368.354 119.268 364.339 119.268V121.268ZM369.445 126.375C369.445 129.286 367.25 131.481 364.339 131.481V133.481C368.354 133.481 371.445 130.39 371.445 126.375H369.445ZM364.339 131.481H347.842V133.481H364.339V131.481ZM346.842 132.481V145.787H348.842V132.481H346.842ZM347.842 146.787H368.075V144.787H347.842V146.787ZM385.335 156.451L385.765 155.548L385.736 155.534L385.707 155.522L385.335 156.451ZM416.323 97.119L415.985 98.0602L415.992 98.0628L416 98.0653L416.323 97.119ZM400.1 158.276C395.088 158.276 389.415 157.286 385.765 155.548L384.905 157.353C388.911 159.261 394.904 160.276 400.1 160.276V158.276ZM385.707 155.522C383.207 154.522 381.87 152.897 381.87 150.8H379.87C379.87 153.989 381.996 156.192 384.964 157.379L385.707 155.522ZM381.87 150.8C381.87 148.224 383.821 145.785 387.158 145.785V143.785C382.658 143.785 379.87 147.179 379.87 150.8H381.87ZM387.158 145.785C388.716 145.785 390.02 146.373 392.079 147.095C394.091 147.801 396.577 148.519 400.191 148.519V146.519C396.878 146.519 394.625 145.869 392.741 145.208C390.904 144.564 389.155 143.785 387.158 143.785V145.785ZM400.191 148.519C402.723 148.519 404.948 147.997 406.564 146.795C408.226 145.558 409.12 143.695 409.12 141.322H407.12C407.12 143.141 406.465 144.376 405.37 145.19C404.229 146.039 402.49 146.519 400.191 146.519V148.519ZM409.12 141.322C409.12 138.081 407.126 135.965 404.538 134.335C402.001 132.737 398.563 131.413 395.376 129.913C392.111 128.376 388.968 126.604 386.637 124.039C384.336 121.507 382.781 118.153 382.781 113.342H380.781C380.781 118.647 382.519 122.481 385.156 125.384C387.764 128.253 391.206 130.161 394.525 131.723C397.923 133.322 401.07 134.515 403.472 136.027C405.822 137.507 407.12 139.094 407.12 141.322H409.12ZM382.781 113.342C382.781 107.487 385.085 103.207 388.813 100.363C392.575 97.4931 397.876 96.0228 403.928 96.0228V94.0228C397.584 94.0228 391.812 95.5601 387.6 98.7733C383.353 102.013 380.781 106.893 380.781 113.342H382.781ZM403.928 96.0228C408.189 96.0228 412.54 96.8236 415.985 98.0602L416.661 96.1778C412.996 94.8625 408.416 94.0228 403.928 94.0228V96.0228ZM416 98.0653C417.76 98.6666 418.855 99.4039 419.508 100.187C420.147 100.951 420.427 101.831 420.427 102.861H422.427C422.427 101.43 422.023 100.077 421.043 98.9045C420.079 97.7505 418.622 96.8473 416.646 96.1726L416 98.0653ZM420.427 102.861C420.427 105.32 418.597 107.694 415.685 107.694V109.694C419.882 109.694 422.427 106.235 422.427 102.861H420.427ZM415.685 107.694C415.134 107.694 414.523 107.578 413.782 107.374C413.023 107.164 412.247 106.897 411.273 106.598C409.371 106.015 407.031 105.415 404.019 105.415V107.415C406.749 107.415 408.874 107.955 410.686 108.51C411.57 108.781 412.462 109.084 413.25 109.302C414.056 109.524 414.869 109.694 415.685 109.694V107.694ZM404.019 105.415C401.696 105.415 399.634 105.946 398.128 107.088C396.587 108.258 395.728 109.997 395.728 112.157H397.728C397.728 110.58 398.327 109.448 399.337 108.681C400.384 107.887 401.968 107.415 404.019 107.415V105.415ZM395.728 112.157C395.728 115.377 397.725 117.487 400.311 119.114C402.849 120.711 406.283 122.037 409.473 123.532C412.74 125.064 415.884 126.823 418.216 129.355C420.516 131.853 422.067 135.148 422.067 139.863H424.067C424.067 134.644 422.326 130.865 419.687 128C417.08 125.169 413.639 123.277 410.322 121.721C406.927 120.129 403.777 118.932 401.376 117.421C399.023 115.941 397.728 114.36 397.728 112.157H395.728ZM422.067 139.863C422.067 146.034 419.605 150.592 415.687 153.633C411.738 156.697 406.231 158.276 400.1 158.276V160.276C406.546 160.276 412.523 158.619 416.913 155.213C421.334 151.783 424.067 146.634 424.067 139.863H422.067ZM460.448 108.511V107.511H459.448V108.511H460.448ZM445.593 108.511H446.593V107.511H445.593V108.511ZM459.448 108.511V151.256H461.448V108.511H459.448ZM459.448 151.256C459.448 154.987 456.706 157.729 452.975 157.729V159.729C457.811 159.729 461.448 156.092 461.448 151.256H459.448ZM452.975 157.729C449.343 157.729 446.593 154.995 446.593 151.256H444.593C444.593 156.083 448.222 159.729 452.975 159.729V157.729ZM446.593 151.256V108.511H444.593V151.256H446.593ZM445.593 107.511H433.471V109.511H445.593V107.511ZM433.471 107.511C430.57 107.511 428.365 105.326 428.365 102.314H426.365C426.365 106.411 429.446 109.511 433.471 109.511V107.511ZM428.365 102.314C428.365 99.4227 430.54 97.2987 433.471 97.2987V95.2987C429.476 95.2987 426.365 98.2786 426.365 102.314H428.365ZM433.471 97.2987H472.479V95.2987H433.471V97.2987ZM472.479 97.2987C475.39 97.2987 477.494 99.4029 477.494 102.314H479.494C479.494 98.2983 476.494 95.2987 472.479 95.2987V97.2987ZM477.494 102.314C477.494 105.346 475.36 107.511 472.479 107.511V109.511C476.524 109.511 479.494 106.391 479.494 102.314H477.494ZM472.479 107.511H460.448V109.511H472.479V107.511ZM487.606 102.952C487.606 99.3118 490.348 96.5696 493.988 96.5696V94.5696C489.244 94.5696 485.606 98.2072 485.606 102.952H487.606ZM493.988 96.5696C497.711 96.5696 500.371 99.3036 500.371 102.952H502.371C502.371 98.2154 498.832 94.5696 493.988 94.5696V96.5696ZM500.371 102.952V151.256H502.371V102.952H500.371ZM500.371 151.256C500.371 154.92 497.695 157.729 493.988 157.729V159.729C498.848 159.729 502.371 155.976 502.371 151.256H500.371ZM493.988 157.729C490.364 157.729 487.606 154.912 487.606 151.256H485.606C485.606 155.984 489.228 159.729 493.988 159.729V157.729ZM487.606 151.256V102.952H485.606V151.256H487.606ZM543.236 158.458C533.369 158.458 525.935 155.495 520.961 150.238C515.98 144.973 513.34 137.274 513.34 127.559H511.34C511.34 137.622 514.078 145.873 519.509 151.613C524.948 157.361 532.962 160.458 543.236 160.458V158.458ZM513.34 127.559C513.34 117.802 516.024 109.891 521.083 104.429C526.13 98.9776 533.657 95.8405 543.601 95.8405V93.8405C533.221 93.8405 525.117 97.1287 519.615 103.07C514.124 109 511.34 117.449 511.34 127.559H513.34ZM543.601 95.8405C553.415 95.8405 560.826 98.8678 565.791 104.192C570.766 109.527 573.406 117.298 573.406 127.013H575.406C575.406 116.95 572.669 108.635 567.254 102.828C561.829 97.0107 553.837 93.8405 543.601 93.8405V95.8405ZM573.406 127.013C573.406 136.77 570.722 144.61 565.678 150.003C560.644 155.386 553.14 158.458 543.236 158.458V160.458C553.565 160.458 561.647 157.242 567.139 151.369C572.621 145.507 575.406 137.124 575.406 127.013H573.406ZM543.419 148.61C548.622 148.61 552.804 146.619 555.654 142.847C558.475 139.115 559.912 133.746 559.912 127.104H557.912C557.912 133.495 556.524 138.379 554.059 141.641C551.623 144.865 548.058 146.61 543.419 146.61V148.61ZM559.912 127.104C559.912 120.462 558.475 115.093 555.654 111.36C552.804 107.589 548.622 105.597 543.419 105.597V107.597C548.058 107.597 551.623 109.343 554.059 112.566C556.524 115.829 557.912 120.713 557.912 127.104H559.912ZM543.419 105.597C538.216 105.597 534.012 107.588 531.14 111.357C528.295 115.089 526.834 120.458 526.834 127.104H528.834C528.834 120.716 530.243 115.833 532.73 112.569C535.189 109.343 538.779 107.597 543.419 107.597V105.597ZM526.834 127.104C526.834 133.749 528.295 139.119 531.14 142.851C534.012 146.619 538.216 148.61 543.419 148.61V146.61C538.779 146.61 535.189 144.864 532.73 141.638C530.243 138.375 528.834 133.491 528.834 127.104H526.834ZM602.08 99.9443L602.921 99.4022L602.917 99.3963L602.08 99.9443ZM623.954 133.848L623.113 134.39L623.409 134.848H623.954V133.848ZM624.045 133.848V134.848H625.045V133.848H624.045ZM621.857 154.628L621.016 155.168L621.016 155.169L621.857 154.628ZM598.435 118.172L599.276 117.632L598.981 117.172H598.435V118.172ZM598.344 118.172V117.172H597.344V118.172H598.344ZM591.599 157.729C589.843 157.729 588.551 157.118 587.69 156.175C586.818 155.22 586.311 153.836 586.311 152.167H584.311C584.311 154.235 584.942 156.132 586.212 157.523C587.493 158.927 589.345 159.729 591.599 159.729V157.729ZM586.311 152.167V104.684H584.311V152.167H586.311ZM586.311 104.684C586.311 102.001 587.074 100.028 588.376 98.7261C589.678 97.4239 591.651 96.6608 594.333 96.6608V94.6608C591.274 94.6608 588.735 95.5381 586.962 97.3119C585.188 99.0857 584.311 101.625 584.311 104.684H586.311ZM594.333 96.6608C597.163 96.6608 599.684 98.1116 601.244 100.492L602.917 99.3963C601.013 96.4909 597.883 94.6608 594.333 94.6608V96.6608ZM601.24 100.486L623.113 134.39L624.794 133.306L602.92 99.4022L601.24 100.486ZM623.954 134.848H624.045V132.848H623.954V134.848ZM625.045 133.848V102.132H623.045V133.848H625.045ZM625.045 102.132C625.045 98.9563 627.322 96.5696 630.789 96.5696V94.5696C626.236 94.5696 623.045 97.8336 623.045 102.132H625.045ZM630.789 96.5696C632.414 96.5696 633.72 97.1394 634.62 98.0581C635.522 98.9788 636.078 100.313 636.078 101.949H638.078C638.078 99.8491 637.357 97.9934 636.049 96.6584C634.739 95.3214 632.901 94.5696 630.789 94.5696V96.5696ZM636.078 101.949V150.435H638.078V101.949H636.078ZM636.078 150.435C636.078 152.899 635.401 154.663 634.252 155.812C633.102 156.961 631.339 157.638 628.875 157.638V159.638C631.697 159.638 634.035 158.857 635.666 157.226C637.296 155.596 638.078 153.258 638.078 150.435H636.078ZM628.875 157.638C626.419 157.638 624.171 156.378 622.699 154.087L621.016 155.169C622.825 157.981 625.681 159.638 628.875 159.638V157.638ZM622.699 154.087L599.276 117.632L597.593 118.713L621.016 155.168L622.699 154.087ZM598.435 117.172H598.344V119.172H598.435V117.172ZM597.344 118.172V152.167H599.344V118.172H597.344ZM597.344 152.167C597.344 155.316 594.82 157.729 591.599 157.729V159.729C595.852 159.729 599.344 156.492 599.344 152.167H597.344Z" fill="white" fill-opacity="0.4" mask="url(#path-2-outside-1_114_637)"/>
</g>
<g opacity="0.15">
<mask id="path-4-outside-2_114_637" maskUnits="userSpaceOnUse" x="-107" y="8" width="835" height="68" fill="black">
<rect fill="white" x="-107" y="8" width="835" height="68"/>
<path d="M-99.6937 73.7291C-103.248 73.7291 -105.891 70.9949 -105.891 67.4405V20.6861C-105.891 14.3063 -102.337 10.5696 -96.0481 10.5696C-91.4911 10.5696 -88.119 13.3038 -86.3873 17.8608L-72.5342 54.7722H-72.443L-58.4987 17.6785C-56.8582 13.2127 -53.4861 10.5696 -49.2937 10.5696C-43.0962 10.5696 -39.6329 14.1241 -39.6329 20.3215V67.4405C-39.6329 70.9949 -42.276 73.7291 -45.8304 73.7291C-49.4759 73.7291 -52.119 70.9949 -52.119 67.4405V33.2633H-52.2101L-64.4228 66.438C-65.881 70.357 -68.9797 72.6354 -72.8076 72.6354C-76.6354 72.6354 -79.7342 70.4481 -81.1924 66.438L-93.4051 33.2633H-93.4962V67.4405C-93.4962 70.9949 -96.1392 73.7291 -99.6937 73.7291ZM2.1829 74.4582C-17.9589 74.4582 -28.7133 62.3367 -28.7133 42.5595C-28.7133 22.6911 -17.7766 9.84051 2.54746 9.84051C22.5981 9.84051 33.3525 22.2354 33.3525 42.0127C33.3525 61.881 22.4158 74.4582 2.1829 74.4582ZM2.36518 62.6101C12.2082 62.6101 17.8589 55.1367 17.8589 42.1038C17.8589 29.0709 12.2082 21.5975 2.36518 21.5975C-7.47785 21.5975 -13.2196 29.0709 -13.2196 42.1038C-13.2196 55.1367 -7.47785 62.6101 2.36518 62.6101ZM65.3317 73.7291C60.0456 73.7291 56.1267 70.9038 54.4861 65.8911L39.4482 20.2304C37.7165 14.8532 41.3621 10.5696 46.3748 10.5696C49.9292 10.5696 52.4811 12.6658 53.5748 16.1291L65.6963 55.0456H66.152L78.5469 15.4911C79.4583 12.4835 82.1013 10.5696 85.2001 10.5696C90.5773 10.5696 93.038 14.8532 91.3975 19.6835L76.1773 65.8C74.5368 70.8127 70.5267 73.7291 65.3317 73.7291ZM101.397 17.9519C101.397 13.7595 104.587 10.5696 108.78 10.5696C113.063 10.5696 116.162 13.7595 116.162 17.9519V66.2557C116.162 70.4481 113.063 73.7291 108.78 73.7291C104.587 73.7291 101.397 70.4481 101.397 66.2557V17.9519ZM165.501 60.7873C168.964 60.7873 171.516 63.3392 171.516 66.8937C171.516 70.357 168.964 73 165.501 73H137.886C133.42 73 130.412 69.9924 130.412 65.5266V18.7722C130.412 14.3063 133.42 11.2987 137.886 11.2987H165.136C168.6 11.2987 171.243 13.9418 171.243 17.4051C171.243 20.8684 168.6 23.5114 165.136 23.5114H145.268V35.2684H161.764C165.227 35.2684 167.87 37.9114 167.87 41.3747C167.87 44.838 165.227 47.481 161.764 47.481H145.268V60.7873H165.501ZM197.526 74.2759C192.422 74.2759 186.589 73.2734 182.761 71.4506C180.027 70.357 178.295 68.443 178.295 65.8C178.295 62.7013 180.665 59.7848 184.584 59.7848C188.138 59.7848 190.69 62.519 197.617 62.519C202.447 62.519 205.546 60.5139 205.546 56.3215C205.546 45.3848 179.207 48.5747 179.207 28.3418C179.207 16.038 188.959 10.0228 201.353 10.0228C205.728 10.0228 210.194 10.843 213.748 12.119C217.485 13.3949 218.852 15.4 218.852 17.8608C218.852 20.7772 216.665 23.6937 213.11 23.6937C210.376 23.6937 207.186 21.4152 201.445 21.4152C197.07 21.4152 194.153 23.4203 194.153 27.157C194.153 38.0025 220.493 34.9949 220.493 54.8633C220.493 67.8051 210.103 74.2759 197.526 74.2759ZM282.39 48.9392C282.39 65.4354 272.365 74.4582 255.869 74.4582C239.828 74.4582 230.259 66.438 230.259 48.757V17.9519C230.259 13.7595 233.358 10.5696 237.641 10.5696C241.834 10.5696 244.932 13.7595 244.932 17.9519V50.6709C244.932 58.9646 249.398 62.519 256.416 62.519C263.525 62.519 267.717 58.9646 267.717 50.9443V17.8608C267.717 13.7595 270.907 10.5696 275.099 10.5696C279.201 10.5696 282.39 13.7595 282.39 17.8608V48.9392ZM338.976 37.9114C343.715 37.9114 346.905 41.1013 346.905 45.8405V64.8886C346.905 68.5342 344.535 70.8127 341.254 71.9063C336.059 73.7291 330.591 74.4582 323.847 74.4582C305.163 74.4582 292.677 62.8835 292.677 43.1975C292.677 21.3241 306.986 9.84051 324.94 9.84051C330.226 9.84051 335.604 10.7519 340.343 12.3924C343.715 13.5772 344.809 15.7646 344.809 18.043C344.809 21.1418 342.804 24.4228 339.614 24.4228C336.697 24.4228 333.325 21.6886 326.763 21.6886C316.009 21.6886 307.989 28.7063 307.989 42.4684C307.989 54.3165 313.639 62.6101 325.578 62.6101C329.042 62.6101 331.411 62.4278 334.054 61.881V49.3949H327.492C323.756 49.3949 320.93 46.9342 320.93 43.6532C320.93 40.3722 323.756 37.9114 327.492 37.9114H338.976ZM401.99 37.9114C406.729 37.9114 409.919 41.1013 409.919 45.8405V64.8886C409.919 68.5342 407.55 70.8127 404.269 71.9063C399.074 73.7291 393.605 74.4582 386.861 74.4582C368.177 74.4582 355.691 62.8835 355.691 43.1975C355.691 21.3241 370 9.84051 387.955 9.84051C393.241 9.84051 398.618 10.7519 403.357 12.3924C406.729 13.5772 407.823 15.7646 407.823 18.043C407.823 21.1418 405.818 24.4228 402.628 24.4228C399.712 24.4228 396.339 21.6886 389.777 21.6886C379.023 21.6886 371.003 28.7063 371.003 42.4684C371.003 54.3165 376.653 62.6101 388.593 62.6101C392.056 62.6101 394.426 62.4278 397.069 61.881V49.3949H390.507C386.77 49.3949 383.945 46.9342 383.945 43.6532C383.945 40.3722 386.77 37.9114 390.507 37.9114H401.99ZM457.075 60.7873C460.539 60.7873 463.09 63.3392 463.09 66.8937C463.09 70.357 460.539 73 457.075 73H429.46C424.994 73 421.987 69.9924 421.987 65.5266V18.7722C421.987 14.3063 424.994 11.2987 429.46 11.2987H456.711C460.174 11.2987 462.817 13.9418 462.817 17.4051C462.817 20.8684 460.174 23.5114 456.711 23.5114H436.842V35.2684H453.339C456.802 35.2684 459.445 37.9114 459.445 41.3747C459.445 44.838 456.802 47.481 453.339 47.481H436.842V60.7873H457.075ZM489.1 74.2759C483.996 74.2759 478.163 73.2734 474.335 71.4506C471.601 70.357 469.87 68.443 469.87 65.8C469.87 62.7013 472.239 59.7848 476.158 59.7848C479.713 59.7848 482.265 62.519 489.191 62.519C494.021 62.519 497.12 60.5139 497.12 56.3215C497.12 45.3848 470.781 48.5747 470.781 28.3418C470.781 16.038 480.533 10.0228 492.928 10.0228C497.302 10.0228 501.768 10.843 505.323 12.119C509.059 13.3949 510.427 15.4 510.427 17.8608C510.427 20.7772 508.239 23.6937 504.685 23.6937C501.951 23.6937 498.761 21.4152 493.019 21.4152C488.644 21.4152 485.728 23.4203 485.728 27.157C485.728 38.0025 512.067 34.9949 512.067 54.8633C512.067 67.8051 501.677 74.2759 489.1 74.2759ZM549.448 23.5114V66.2557C549.448 70.5392 546.259 73.7291 541.975 73.7291C537.783 73.7291 534.593 70.5392 534.593 66.2557V23.5114H522.471C519.008 23.5114 516.365 20.8684 516.365 17.3139C516.365 13.8506 519.008 11.2987 522.471 11.2987H561.479C564.942 11.2987 567.494 13.8506 567.494 17.3139C567.494 20.8684 564.942 23.5114 561.479 23.5114H549.448ZM575.606 17.9519C575.606 13.7595 578.796 10.5696 582.988 10.5696C587.272 10.5696 590.371 13.7595 590.371 17.9519V66.2557C590.371 70.4481 587.272 73.7291 582.988 73.7291C578.796 73.7291 575.606 70.4481 575.606 66.2557V17.9519ZM632.236 74.4582C612.094 74.4582 601.34 62.3367 601.34 42.5595C601.34 22.6911 612.277 9.84051 632.601 9.84051C652.651 9.84051 663.406 22.2354 663.406 42.0127C663.406 61.881 652.469 74.4582 632.236 74.4582ZM632.419 62.6101C642.262 62.6101 647.912 55.1367 647.912 42.1038C647.912 29.0709 642.262 21.5975 632.419 21.5975C622.575 21.5975 616.834 29.0709 616.834 42.1038C616.834 55.1367 622.575 62.6101 632.419 62.6101ZM680.599 73.7291C676.589 73.7291 674.311 70.9038 674.311 67.1671V19.6835C674.311 13.9418 677.592 10.6608 683.333 10.6608C686.523 10.6608 689.349 12.3013 691.08 14.9443L712.954 48.8481H713.045V17.1316C713.045 13.3949 715.779 10.5696 719.789 10.5696C723.526 10.5696 726.078 13.2127 726.078 16.9494V65.4354C726.078 70.7215 723.161 73.638 717.875 73.638C715.05 73.638 712.498 72.1797 710.857 69.6278L687.435 33.1722H687.343V67.1671C687.343 70.9038 684.336 73.7291 680.599 73.7291Z"/>
</mask>
<path d="M-86.3873 17.8608L-85.4511 17.5094L-85.4526 17.5055L-86.3873 17.8608ZM-72.5342 54.7722L-73.4704 55.1235L-73.227 55.7722H-72.5342V54.7722ZM-72.443 54.7722V55.7722H-71.7506L-71.507 55.124L-72.443 54.7722ZM-58.4987 17.6785L-57.5627 18.0304L-57.5601 18.0233L-58.4987 17.6785ZM-52.119 33.2633H-51.119V32.2633H-52.119V33.2633ZM-52.2101 33.2633V32.2633H-52.9076L-53.1486 32.9178L-52.2101 33.2633ZM-64.4228 66.438L-63.4856 66.7867L-63.4844 66.7834L-64.4228 66.438ZM-81.1924 66.438L-80.2526 66.0962L-80.254 66.0925L-81.1924 66.438ZM-93.4051 33.2633L-92.4666 32.9178L-92.7076 32.2633H-93.4051V33.2633ZM-93.4962 33.2633V32.2633H-94.4962V33.2633H-93.4962ZM-99.6937 72.7291C-102.677 72.7291 -104.891 70.462 -104.891 67.4405H-106.891C-106.891 71.5279 -103.82 74.7291 -99.6937 74.7291V72.7291ZM-104.891 67.4405V20.6861H-106.891V67.4405H-104.891ZM-104.891 20.6861C-104.891 17.6772 -104.055 15.4261 -102.609 13.9306C-101.167 12.44 -98.9933 11.5696 -96.0481 11.5696V9.56962C-99.3915 9.56962 -102.139 10.5676 -104.047 12.5403C-105.95 14.5081 -106.891 17.3153 -106.891 20.6861H-104.891ZM-96.0481 11.5696C-91.9872 11.5696 -88.9372 13.9657 -87.3221 18.216L-85.4526 17.5055C-87.3008 12.6419 -90.9951 9.56962 -96.0481 9.56962V11.5696ZM-87.3236 18.2121L-73.4704 55.1235L-71.5979 54.4208L-85.4511 17.5094L-87.3236 18.2121ZM-72.5342 55.7722H-72.443V53.7722H-72.5342V55.7722ZM-71.507 55.124L-57.5627 18.0304L-59.4348 17.3266L-73.3791 54.4203L-71.507 55.124ZM-57.5601 18.0233C-56.035 13.8718 -52.9882 11.5696 -49.2937 11.5696V9.56962C-53.984 9.56962 -57.6814 12.5535 -59.4374 17.3337L-57.5601 18.0233ZM-49.2937 11.5696C-46.3844 11.5696 -44.2552 12.4002 -42.8512 13.8237C-41.4451 15.2493 -40.6329 17.4049 -40.6329 20.3215H-38.6329C-38.6329 17.0407 -39.5523 14.3203 -41.4273 12.4193C-43.3043 10.5162 -46.0055 9.56962 -49.2937 9.56962V11.5696ZM-40.6329 20.3215V67.4405H-38.6329V20.3215H-40.6329ZM-40.6329 67.4405C-40.6329 70.462 -42.8474 72.7291 -45.8304 72.7291V74.7291C-41.7045 74.7291 -38.6329 71.5279 -38.6329 67.4405H-40.6329ZM-45.8304 72.7291C-48.9141 72.7291 -51.119 70.4522 -51.119 67.4405H-53.119C-53.119 71.5376 -50.0378 74.7291 -45.8304 74.7291V72.7291ZM-51.119 67.4405V33.2633H-53.119V67.4405H-51.119ZM-52.119 32.2633H-52.2101V34.2633H-52.119V32.2633ZM-53.1486 32.9178L-65.3612 66.0925L-63.4844 66.7834L-51.2717 33.6088L-53.1486 32.9178ZM-65.36 66.0892C-66.689 69.661 -69.4429 71.6354 -72.8076 71.6354V73.6354C-68.5166 73.6354 -65.073 71.0529 -63.4856 66.7867L-65.36 66.0892ZM-72.8076 71.6354C-76.1834 71.6354 -78.927 69.7417 -80.2526 66.0962L-82.1322 66.7797C-80.5414 71.1545 -77.0875 73.6354 -72.8076 73.6354V71.6354ZM-80.254 66.0925L-92.4666 32.9178L-94.3435 33.6088L-82.1308 66.7834L-80.254 66.0925ZM-93.4051 32.2633H-93.4962V34.2633H-93.4051V32.2633ZM-94.4962 33.2633V67.4405H-92.4962V33.2633H-94.4962ZM-94.4962 67.4405C-94.4962 70.462 -96.7107 72.7291 -99.6937 72.7291V74.7291C-95.5678 74.7291 -92.4962 71.5279 -92.4962 67.4405H-94.4962ZM2.18291 73.4582C-7.68442 73.4582 -15.1185 70.4945 -20.092 65.238C-25.0737 59.9729 -27.7133 52.2739 -27.7133 42.5595H-29.7133C-29.7133 52.6223 -26.9757 60.8726 -21.5447 66.6126C-16.1056 72.3612 -8.09155 75.4582 2.18291 75.4582V73.4582ZM-27.7133 42.5595C-27.7133 32.8019 -25.0291 24.8914 -19.9707 19.4288C-14.9229 13.9776 -7.3967 10.8405 2.54746 10.8405V8.84051C-7.83243 8.84051 -15.9366 12.1287 -21.4382 18.0699C-26.9291 23.9997 -29.7133 32.4487 -29.7133 42.5595H-27.7133ZM2.54746 10.8405C12.3614 10.8405 19.7726 13.8678 24.7376 19.1921C29.7126 24.5271 32.3525 32.298 32.3525 42.0127H34.3525C34.3525 31.9501 31.6152 23.6349 26.2003 17.8281C20.7755 12.0107 12.7841 8.84051 2.54746 8.84051V10.8405ZM32.3525 42.0127C32.3525 51.7699 29.6686 59.6098 24.6247 65.003C19.5902 70.3862 12.0866 73.4582 2.18291 73.4582V75.4582C12.5121 75.4582 20.5933 72.2416 26.0854 66.3691C31.5681 60.5067 34.3525 52.1237 34.3525 42.0127H32.3525ZM2.36518 63.6101C7.56911 63.6101 11.751 61.6186 14.601 57.8472C17.4215 54.1148 18.8589 48.7459 18.8589 42.1038H16.8589C16.8589 48.4946 15.4709 53.3788 13.0053 56.6414C10.5693 59.865 7.0043 61.6101 2.36518 61.6101V63.6101ZM18.8589 42.1038C18.8589 35.4617 17.4215 30.0928 14.601 26.3604C11.751 22.589 7.56911 20.5975 2.36518 20.5975V22.5975C7.0043 22.5975 10.5693 24.3426 13.0053 27.5662C15.4709 30.8288 16.8589 35.713 16.8589 42.1038H18.8589ZM2.36518 20.5975C-2.83785 20.5975 -7.04095 22.5882 -9.91367 26.3571C-12.7581 30.0889 -14.2196 35.4585 -14.2196 42.1038H-12.2196C-12.2196 35.7162 -10.8102 30.8326 -8.32305 27.5695C-5.86413 24.3435 -2.27482 22.5975 2.36518 22.5975V20.5975ZM-14.2196 42.1038C-14.2196 48.7491 -12.7581 54.1186 -9.91367 57.8505C-7.04095 61.6194 -2.83785 63.6101 2.36518 63.6101V61.6101C-2.27482 61.6101 -5.86413 59.8641 -8.32305 56.6381C-10.8102 53.375 -12.2196 48.4914 -12.2196 42.1038H-14.2196ZM54.4861 65.8911L55.4366 65.5801L55.436 65.5783L54.4861 65.8911ZM39.4482 20.2304L38.4963 20.5369L38.4984 20.5432L39.4482 20.2304ZM53.5748 16.1291L54.5295 15.8317L54.5283 15.828L53.5748 16.1291ZM65.6963 55.0456L64.7415 55.343L64.9604 56.0456H65.6963V55.0456ZM66.152 55.0456V56.0456H66.8866L67.1062 55.3446L66.152 55.0456ZM78.5469 15.4911L79.5012 15.7902L79.5039 15.7811L78.5469 15.4911ZM91.3975 19.6835L90.4506 19.3619L90.4479 19.3701L91.3975 19.6835ZM76.1773 65.8L75.2277 65.4866L75.2269 65.489L76.1773 65.8ZM65.3317 72.7291C62.8708 72.7291 60.7811 72.0736 59.1273 70.8792C57.4739 69.6851 56.1995 67.9113 55.4365 65.5801L53.5358 66.2022C54.4133 68.8837 55.9186 71.0289 57.9564 72.5005C59.9938 73.972 62.5065 74.7291 65.3317 74.7291V72.7291ZM55.436 65.5783L40.398 19.9176L38.4984 20.5432L53.5363 66.2039L55.436 65.5783ZM40.4 19.9238C39.6262 17.5209 40.0703 15.4504 41.1792 13.9877C42.297 12.5134 44.1563 11.5696 46.3748 11.5696V9.56962C43.5806 9.56962 41.1107 10.7677 39.5855 12.7794C38.0514 14.8028 37.5385 17.5627 38.4963 20.5369L40.4 19.9238ZM46.3748 11.5696C47.9463 11.5696 49.2511 12.0294 50.28 12.8372C51.3146 13.6494 52.1241 14.8562 52.6212 16.4302L54.5283 15.828C53.9317 13.9387 52.9185 12.3658 51.515 11.2641C50.1061 10.1579 48.3576 9.56962 46.3748 9.56962V11.5696ZM52.62 16.4265L64.7415 55.343L66.651 54.7482L54.5295 15.8317L52.62 16.4265ZM65.6963 56.0456H66.152V54.0456H65.6963V56.0456ZM67.1062 55.3446L79.5012 15.7902L77.5927 15.1921L65.1977 54.7465L67.1062 55.3446ZM79.5039 15.7811C80.2855 13.2019 82.5348 11.5696 85.2001 11.5696V9.56962C81.6678 9.56962 78.6311 11.7651 77.5899 15.2011L79.5039 15.7811ZM85.2001 11.5696C87.6087 11.5696 89.2226 12.5149 90.0906 13.858C90.9721 15.222 91.1954 17.1692 90.4507 19.362L92.3444 20.0051C93.2402 17.3675 93.0534 14.7578 91.7703 12.7724C90.4737 10.7661 88.1687 9.56962 85.2001 9.56962V11.5696ZM90.4479 19.3701L75.2277 65.4866L77.1269 66.1134L92.3472 19.997L90.4479 19.3701ZM75.2269 65.489C73.7192 70.0959 70.0887 72.7291 65.3317 72.7291V74.7291C70.9646 74.7291 75.3544 71.5294 77.1277 66.111L75.2269 65.489ZM102.397 17.9519C102.397 14.3118 105.139 11.5696 108.779 11.5696V9.56962C104.035 9.56962 100.397 13.2072 100.397 17.9519H102.397ZM108.779 11.5696C112.503 11.5696 115.162 14.3036 115.162 17.9519H117.162C117.162 13.2154 113.623 9.56962 108.779 9.56962V11.5696ZM115.162 17.9519V66.2557H117.162V17.9519H115.162ZM115.162 66.2557C115.162 69.9202 112.487 72.7291 108.779 72.7291V74.7291C113.639 74.7291 117.162 70.976 117.162 66.2557H115.162ZM108.779 72.7291C105.155 72.7291 102.397 69.912 102.397 66.2557H100.397C100.397 70.9842 104.019 74.7291 108.779 74.7291V72.7291ZM102.397 66.2557V17.9519H100.397V66.2557H102.397ZM145.268 23.5114V22.5114H144.268V23.5114H145.268ZM145.268 35.2684H144.268V36.2684H145.268V35.2684ZM145.268 47.481V46.481H144.268V47.481H145.268ZM145.268 60.7873H144.268V61.7873H145.268V60.7873ZM165.501 61.7873C168.402 61.7873 170.516 63.8815 170.516 66.8937H172.516C172.516 62.797 169.526 59.7873 165.501 59.7873V61.7873ZM170.516 66.8937C170.516 69.8246 168.392 72 165.501 72V74C169.536 74 172.516 70.8893 172.516 66.8937H170.516ZM165.501 72H137.886V74H165.501V72ZM137.886 72C135.883 72 134.28 71.3298 133.181 70.2309C132.082 69.1319 131.412 67.5297 131.412 65.5266H129.412C129.412 67.9893 130.246 70.1238 131.767 71.6451C133.288 73.1664 135.423 74 137.886 74V72ZM131.412 65.5266V18.7722H129.412V65.5266H131.412ZM131.412 18.7722C131.412 16.7691 132.082 15.1668 133.181 14.0679C134.28 12.9689 135.883 12.2987 137.886 12.2987V10.2987C135.423 10.2987 133.288 11.1324 131.767 12.6537C130.246 14.1749 129.412 16.3094 129.412 18.7722H131.412ZM137.886 12.2987H165.136V10.2987H137.886V12.2987ZM165.136 12.2987C168.047 12.2987 170.243 14.4941 170.243 17.4051H172.243C172.243 13.3895 169.152 10.2987 165.136 10.2987V12.2987ZM170.243 17.4051C170.243 20.3161 168.047 22.5114 165.136 22.5114V24.5114C169.152 24.5114 172.243 21.4206 172.243 17.4051H170.243ZM165.136 22.5114H145.268V24.5114H165.136V22.5114ZM144.268 23.5114V35.2684H146.268V23.5114H144.268ZM145.268 36.2684H161.764V34.2684H145.268V36.2684ZM161.764 36.2684C164.675 36.2684 166.87 38.4637 166.87 41.3747H168.87C168.87 37.3591 165.78 34.2684 161.764 34.2684V36.2684ZM166.87 41.3747C166.87 44.2857 164.675 46.481 161.764 46.481V48.481C165.78 48.481 168.87 45.3903 168.87 41.3747H166.87ZM161.764 46.481H145.268V48.481H161.764V46.481ZM144.268 47.481V60.7873H146.268V47.481H144.268ZM145.268 61.7873H165.501V59.7873H145.268V61.7873ZM182.761 71.4506L183.191 70.5478L183.162 70.534L183.132 70.5222L182.761 71.4506ZM213.748 12.119L213.411 13.0602L213.418 13.0628L213.425 13.0653L213.748 12.119ZM197.526 73.2759C192.514 73.2759 186.841 72.2859 183.191 70.5478L182.331 72.3535C186.337 74.2609 192.33 75.2759 197.526 75.2759V73.2759ZM183.132 70.5222C180.633 69.5222 179.295 67.8973 179.295 65.8H177.295C177.295 68.9888 179.421 71.1917 182.39 72.3791L183.132 70.5222ZM179.295 65.8C179.295 63.224 181.246 60.7848 184.584 60.7848V58.7848C180.083 58.7848 177.295 62.1785 177.295 65.8H179.295ZM184.584 60.7848C186.142 60.7848 187.445 61.3729 189.505 62.0955C191.517 62.8014 194.003 63.519 197.617 63.519V61.519C194.304 61.519 192.051 60.8694 190.167 60.2083C188.33 59.5638 186.581 58.7848 184.584 58.7848V60.7848ZM197.617 63.519C200.148 63.519 202.373 62.9969 203.99 61.7948C205.652 60.5585 206.546 58.6945 206.546 56.3215H204.546C204.546 58.1409 203.891 59.3757 202.796 60.19C201.655 61.0385 199.916 61.519 197.617 61.519V63.519ZM206.546 56.3215C206.546 53.081 204.552 50.965 201.963 49.3348C199.426 47.7372 195.989 46.4126 192.802 44.9129C189.536 43.3761 186.394 41.6042 184.062 39.0388C181.761 36.5072 180.207 33.1531 180.207 28.3418H178.207C178.207 33.6469 179.944 37.4814 182.582 40.3839C185.189 43.2528 188.631 45.1606 191.95 46.7225C195.348 48.3216 198.496 49.5147 200.897 51.0272C203.248 52.5072 204.546 54.0937 204.546 56.3215H206.546ZM180.207 28.3418C180.207 22.4872 182.51 18.2074 186.238 15.3634C190.001 12.4931 195.302 11.0228 201.353 11.0228V9.02278C195.01 9.02278 189.237 10.5601 185.025 13.7733C180.779 17.0129 178.207 21.8925 178.207 28.3418H180.207ZM201.353 11.0228C205.614 11.0228 209.966 11.8236 213.411 13.0602L214.086 11.1778C210.422 9.86246 205.842 9.02278 201.353 9.02278V11.0228ZM213.425 13.0653C215.186 13.6666 216.28 14.4039 216.934 15.1866C217.572 15.9508 217.852 16.8309 217.852 17.8608H219.852C219.852 16.4299 219.448 15.0771 218.469 13.9045C217.505 12.7505 216.047 11.8473 214.072 11.1726L213.425 13.0653ZM217.852 17.8608C217.852 20.3198 216.022 22.6937 213.11 22.6937V24.6937C217.307 24.6937 219.852 21.2346 219.852 17.8608H217.852ZM213.11 22.6937C212.559 22.6937 211.948 22.5783 211.208 22.3738C210.449 22.1641 209.672 21.8971 208.699 21.5984C206.797 21.0151 204.457 20.4152 201.445 20.4152V22.4152C204.174 22.4152 206.3 22.9546 208.112 23.5105C208.995 23.7814 209.888 24.084 210.675 24.3016C211.482 24.5243 212.294 24.6937 213.11 24.6937V22.6937ZM201.445 20.4152C199.121 20.4152 197.06 20.9456 195.554 22.0882C194.012 23.2581 193.153 24.9971 193.153 27.157H195.153C195.153 25.5801 195.753 24.4482 196.763 23.6814C197.809 22.8873 199.393 22.4152 201.445 22.4152V20.4152ZM193.153 27.157C193.153 30.3771 195.151 32.4871 197.736 34.114C200.274 35.7107 203.709 37.0365 206.899 38.532C210.166 40.064 213.31 41.8227 215.642 44.3548C217.942 46.8526 219.493 50.1485 219.493 54.8633H221.493C221.493 49.6439 219.751 45.8651 217.113 43C214.506 40.1691 211.065 38.2765 207.748 36.7212C204.352 35.1293 201.202 33.9317 198.802 32.4212C196.449 30.9408 195.153 29.3596 195.153 27.157H193.153ZM219.493 54.8633C219.493 61.0341 217.031 65.5921 213.113 68.6327C209.163 71.6972 203.657 73.2759 197.526 73.2759V75.2759C203.972 75.2759 209.949 73.6193 214.339 70.2128C218.759 66.7826 221.493 61.6342 221.493 54.8633H219.493ZM281.391 48.9392C281.391 56.9813 278.952 63.0718 274.629 67.1581C270.297 71.2523 263.941 73.4582 255.869 73.4582V75.4582C264.293 75.4582 271.198 73.1528 276.003 68.6116C280.816 64.0623 283.391 57.3934 283.391 48.9392H281.391ZM255.869 73.4582C248.003 73.4582 241.888 71.4919 237.741 67.5161C233.601 63.5477 231.259 57.4223 231.259 48.757H229.259C229.259 57.7726 231.702 64.4979 236.357 68.9599C241.004 73.4145 247.695 75.4582 255.869 75.4582V73.4582ZM231.259 48.757V17.9519H229.259V48.757H231.259ZM231.259 17.9519C231.259 14.3036 233.918 11.5696 237.641 11.5696V9.56962C232.797 9.56962 229.259 13.2154 229.259 17.9519H231.259ZM237.641 11.5696C241.265 11.5696 243.932 14.2953 243.932 17.9519H245.932C245.932 13.2237 242.402 9.56962 237.641 9.56962V11.5696ZM243.932 17.9519V50.6709H245.932V17.9519H243.932ZM243.932 50.6709C243.932 54.9916 245.098 58.2523 247.348 60.4244C249.59 62.5902 252.75 63.519 256.416 63.519V61.519C253.064 61.519 250.482 60.6706 248.737 58.9857C246.999 57.3072 245.932 54.6439 245.932 50.6709H243.932ZM256.416 63.519C260.124 63.519 263.243 62.5915 265.431 60.4547C267.624 58.3136 268.717 55.1202 268.717 50.9443H266.717C266.717 54.7887 265.714 57.3826 264.034 59.0238C262.348 60.6693 259.816 61.519 256.416 61.519V63.519ZM268.717 50.9443V17.8608H266.717V50.9443H268.717ZM268.717 17.8608C268.717 14.3199 271.451 11.5696 275.099 11.5696V9.56962C270.363 9.56962 266.717 13.1991 266.717 17.8608H268.717ZM275.099 11.5696C278.648 11.5696 281.391 14.3118 281.391 17.8608H283.391C283.391 13.2072 279.753 9.56962 275.099 9.56962V11.5696ZM281.391 17.8608V48.9392H283.391V17.8608H281.391ZM341.254 71.9063L340.938 70.9576L340.931 70.9601L340.923 70.9627L341.254 71.9063ZM340.343 12.3924L340.674 11.4489L340.67 11.4474L340.343 12.3924ZM334.054 61.881L334.257 62.8603L335.054 62.6953V61.881H334.054ZM334.054 49.3949H335.054V48.3949H334.054V49.3949ZM338.976 38.9114C341.116 38.9114 342.832 39.6272 344.011 40.8058C345.189 41.9845 345.905 43.7006 345.905 45.8405H347.905C347.905 43.2412 347.026 40.9928 345.425 39.3916C343.824 37.7905 341.575 36.9114 338.976 36.9114V38.9114ZM345.905 45.8405V64.8886H347.905V45.8405H345.905ZM345.905 64.8886C345.905 66.4765 345.396 67.7245 344.553 68.7012C343.697 69.6927 342.456 70.4516 340.938 70.9576L341.571 72.855C343.334 72.2674 344.918 71.3402 346.067 70.0077C347.23 68.6603 347.905 66.9463 347.905 64.8886H345.905ZM340.923 70.9627C335.866 72.7373 330.517 73.4582 323.847 73.4582V75.4582C330.666 75.4582 336.253 74.7209 341.585 72.8499L340.923 70.9627ZM323.847 73.4582C314.712 73.4582 307.19 70.6322 301.956 65.4963C296.725 60.3637 293.677 52.8243 293.677 43.1975H291.677C291.677 53.2568 294.872 61.3477 300.555 66.9239C306.235 72.4969 314.298 75.4582 323.847 75.4582V73.4582ZM293.677 43.1975C293.677 32.4879 297.174 24.4245 302.769 19.0368C308.373 13.6415 316.175 10.8405 324.94 10.8405V8.84051C315.752 8.84051 307.422 11.7813 301.382 17.5961C295.335 23.4185 291.677 32.0336 291.677 43.1975H293.677ZM324.94 10.8405C330.117 10.8405 335.384 11.734 340.016 13.3374L340.67 11.4474C335.824 9.76984 330.336 8.84051 324.94 8.84051V10.8405ZM340.011 13.3359C341.545 13.8747 342.473 14.6089 343.025 15.3861C343.576 16.1636 343.809 17.0663 343.809 18.043H345.809C345.809 16.7412 345.494 15.411 344.656 14.2291C343.818 13.0468 342.513 12.0949 340.674 11.4489L340.011 13.3359ZM343.809 18.043C343.809 19.3922 343.368 20.7742 342.606 21.7974C341.853 22.8077 340.829 23.4228 339.614 23.4228V25.4228C341.588 25.4228 343.162 24.3974 344.209 22.9925C345.247 21.6005 345.809 19.7926 345.809 18.043H343.809ZM339.614 23.4228C339.034 23.4228 338.389 23.2861 337.594 23.0402C336.772 22.7861 335.947 22.4694 334.875 22.1081C332.793 21.4062 330.194 20.6886 326.763 20.6886V22.6886C329.894 22.6886 332.263 23.3381 334.236 24.0033C335.192 24.3255 336.167 24.6924 337.003 24.9509C337.865 25.2177 338.736 25.4228 339.614 25.4228V23.4228ZM326.763 20.6886C321.165 20.6886 316.194 22.5196 312.623 26.2237C309.054 29.9265 306.989 35.393 306.989 42.4684H308.989C308.989 35.7817 310.933 30.8583 314.063 27.6117C317.191 24.3665 321.607 22.6886 326.763 22.6886V20.6886ZM306.989 42.4684C306.989 48.5352 308.434 53.8242 311.532 57.6151C314.656 61.437 319.357 63.6101 325.578 63.6101V61.6101C319.86 61.6101 315.767 59.6364 313.081 56.3494C310.369 53.0315 308.989 48.2496 308.989 42.4684H306.989ZM325.578 63.6101C329.083 63.6101 331.526 63.4254 334.257 62.8603L333.852 60.9017C331.297 61.4303 329 61.6101 325.578 61.6101V63.6101ZM335.054 61.881V49.3949H333.054V61.881H335.054ZM334.054 48.3949H327.492V50.3949H334.054V48.3949ZM327.492 48.3949C324.177 48.3949 321.93 46.2594 321.93 43.6532H319.93C319.93 47.6089 323.334 50.3949 327.492 50.3949V48.3949ZM321.93 43.6532C321.93 41.0469 324.177 38.9114 327.492 38.9114V36.9114C323.334 36.9114 319.93 39.6974 319.93 43.6532H321.93ZM327.492 38.9114H338.976V36.9114H327.492V38.9114ZM404.269 71.9063L403.952 70.9576L403.945 70.9601L403.938 70.9627L404.269 71.9063ZM403.357 12.3924L403.689 11.4489L403.684 11.4474L403.357 12.3924ZM397.069 61.881L397.271 62.8603L398.069 62.6953V61.881H397.069ZM397.069 49.3949H398.069V48.3949H397.069V49.3949ZM401.99 38.9114C404.13 38.9114 405.846 39.6272 407.025 40.8058C408.203 41.9845 408.919 43.7006 408.919 45.8405H410.919C410.919 43.2412 410.04 40.9928 408.439 39.3916C406.838 37.7905 404.589 36.9114 401.99 36.9114V38.9114ZM408.919 45.8405V64.8886H410.919V45.8405H408.919ZM408.919 64.8886C408.919 66.4765 408.41 67.7245 407.567 68.7012C406.712 69.6927 405.47 70.4516 403.952 70.9576L404.585 72.855C406.348 72.2674 407.932 71.3402 409.081 70.0077C410.244 68.6603 410.919 66.9463 410.919 64.8886H408.919ZM403.938 70.9627C398.88 72.7373 393.531 73.4582 386.861 73.4582V75.4582C393.68 75.4582 399.267 74.7209 404.6 72.8499L403.938 70.9627ZM386.861 73.4582C377.726 73.4582 370.204 70.6322 364.97 65.4963C359.739 60.3637 356.691 52.8243 356.691 43.1975H354.691C354.691 53.2568 357.887 61.3477 363.569 66.9239C369.249 72.4969 377.312 75.4582 386.861 75.4582V73.4582ZM356.691 43.1975C356.691 32.4879 360.188 24.4245 365.784 19.0368C371.387 13.6415 379.189 10.8405 387.955 10.8405V8.84051C378.766 8.84051 370.436 11.7813 364.396 17.5961C358.349 23.4185 354.691 32.0336 354.691 43.1975H356.691ZM387.955 10.8405C393.131 10.8405 398.398 11.734 403.03 13.3374L403.684 11.4474C398.838 9.76984 393.35 8.84051 387.955 8.84051V10.8405ZM403.026 13.3359C404.559 13.8747 405.488 14.6089 406.039 15.3861C406.59 16.1636 406.823 17.0663 406.823 18.043H408.823C408.823 16.7412 408.509 15.411 407.67 14.2291C406.832 13.0468 405.527 12.0949 403.689 11.4489L403.026 13.3359ZM406.823 18.043C406.823 19.3922 406.382 20.7742 405.62 21.7974C404.867 22.8077 403.843 23.4228 402.628 23.4228V25.4228C404.603 25.4228 406.177 24.3974 407.224 22.9925C408.261 21.6005 408.823 19.7926 408.823 18.043H406.823ZM402.628 23.4228C402.048 23.4228 401.403 23.2861 400.608 23.0402C399.786 22.7861 398.961 22.4694 397.889 22.1081C395.807 21.4062 393.209 20.6886 389.777 20.6886V22.6886C392.908 22.6886 395.277 23.3381 397.25 24.0033C398.206 24.3255 399.181 24.6924 400.017 24.9509C400.88 25.2177 401.75 25.4228 402.628 25.4228V23.4228ZM389.777 20.6886C384.18 20.6886 379.208 22.5196 375.637 26.2237C372.068 29.9265 370.003 35.393 370.003 42.4684H372.003C372.003 35.7817 373.948 30.8583 377.077 27.6117C380.205 24.3665 384.621 22.6886 389.777 22.6886V20.6886ZM370.003 42.4684C370.003 48.5352 371.448 53.8242 374.546 57.6151C377.67 61.437 382.371 63.6101 388.593 63.6101V61.6101C382.875 61.6101 378.781 59.6364 376.095 56.3494C373.383 53.0315 372.003 48.2496 372.003 42.4684H370.003ZM388.593 63.6101C392.097 63.6101 394.54 63.4254 397.271 62.8603L396.866 60.9017C394.311 61.4303 392.014 61.6101 388.593 61.6101V63.6101ZM398.069 61.881V49.3949H396.069V61.881H398.069ZM397.069 48.3949H390.507V50.3949H397.069V48.3949ZM390.507 48.3949C387.191 48.3949 384.945 46.2594 384.945 43.6532H382.945C382.945 47.6089 386.349 50.3949 390.507 50.3949V48.3949ZM384.945 43.6532C384.945 41.0469 387.191 38.9114 390.507 38.9114V36.9114C386.349 36.9114 382.945 39.6974 382.945 43.6532H384.945ZM390.507 38.9114H401.99V36.9114H390.507V38.9114ZM436.842 23.5114V22.5114H435.842V23.5114H436.842ZM436.842 35.2684H435.842V36.2684H436.842V35.2684ZM436.842 47.481V46.481H435.842V47.481H436.842ZM436.842 60.7873H435.842V61.7873H436.842V60.7873ZM457.075 61.7873C459.976 61.7873 462.09 63.8815 462.09 66.8937H464.09C464.09 62.797 461.101 59.7873 457.075 59.7873V61.7873ZM462.09 66.8937C462.09 69.8246 459.966 72 457.075 72V74C461.111 74 464.09 70.8893 464.09 66.8937H462.09ZM457.075 72H429.46V74H457.075V72ZM429.46 72C427.457 72 425.855 71.3298 424.756 70.2309C423.657 69.1319 422.987 67.5297 422.987 65.5266H420.987C420.987 67.9893 421.82 70.1238 423.342 71.6451C424.863 73.1664 426.997 74 429.46 74V72ZM422.987 65.5266V18.7722H420.987V65.5266H422.987ZM422.987 18.7722C422.987 16.7691 423.657 15.1668 424.756 14.0679C425.855 12.9689 427.457 12.2987 429.46 12.2987V10.2987C426.997 10.2987 424.863 11.1324 423.342 12.6537C421.82 14.1749 420.987 16.3094 420.987 18.7722H422.987ZM429.46 12.2987H456.711V10.2987H429.46V12.2987ZM456.711 12.2987C459.622 12.2987 461.817 14.4941 461.817 17.4051H463.817C463.817 13.3895 460.726 10.2987 456.711 10.2987V12.2987ZM461.817 17.4051C461.817 20.3161 459.622 22.5114 456.711 22.5114V24.5114C460.726 24.5114 463.817 21.4206 463.817 17.4051H461.817ZM456.711 22.5114H436.842V24.5114H456.711V22.5114ZM435.842 23.5114V35.2684H437.842V23.5114H435.842ZM436.842 36.2684H453.339V34.2684H436.842V36.2684ZM453.339 36.2684C456.25 36.2684 458.445 38.4637 458.445 41.3747H460.445C460.445 37.3591 457.354 34.2684 453.339 34.2684V36.2684ZM458.445 41.3747C458.445 44.2857 456.25 46.481 453.339 46.481V48.481C457.354 48.481 460.445 45.3903 460.445 41.3747H458.445ZM453.339 46.481H436.842V48.481H453.339V46.481ZM435.842 47.481V60.7873H437.842V47.481H435.842ZM436.842 61.7873H457.075V59.7873H436.842V61.7873ZM474.335 71.4506L474.765 70.5478L474.736 70.534L474.707 70.5222L474.335 71.4506ZM505.323 12.119L504.985 13.0602L504.992 13.0628L505 13.0653L505.323 12.119ZM489.1 73.2759C484.088 73.2759 478.415 72.2859 474.765 70.5478L473.905 72.3535C477.911 74.2609 483.904 75.2759 489.1 75.2759V73.2759ZM474.707 70.5222C472.207 69.5222 470.87 67.8973 470.87 65.8H468.87C468.87 68.9888 470.996 71.1917 473.964 72.3791L474.707 70.5222ZM470.87 65.8C470.87 63.224 472.821 60.7848 476.158 60.7848V58.7848C471.658 58.7848 468.87 62.1785 468.87 65.8H470.87ZM476.158 60.7848C477.716 60.7848 479.02 61.3729 481.079 62.0955C483.091 62.8014 485.577 63.519 489.191 63.519V61.519C485.878 61.519 483.625 60.8694 481.741 60.2083C479.904 59.5638 478.155 58.7848 476.158 58.7848V60.7848ZM489.191 63.519C491.723 63.519 493.948 62.9969 495.564 61.7948C497.226 60.5585 498.12 58.6945 498.12 56.3215H496.12C496.12 58.1409 495.465 59.3757 494.37 60.19C493.229 61.0385 491.49 61.519 489.191 61.519V63.519ZM498.12 56.3215C498.12 53.081 496.126 50.965 493.538 49.3348C491.001 47.7372 487.563 46.4126 484.376 44.9129C481.111 43.3761 477.968 41.6042 475.637 39.0388C473.336 36.5072 471.781 33.1531 471.781 28.3418H469.781C469.781 33.6469 471.519 37.4814 474.156 40.3839C476.764 43.2528 480.206 45.1606 483.525 46.7225C486.923 48.3216 490.07 49.5147 492.472 51.0272C494.822 52.5072 496.12 54.0937 496.12 56.3215H498.12ZM471.781 28.3418C471.781 22.4872 474.085 18.2074 477.813 15.3634C481.575 12.4931 486.876 11.0228 492.928 11.0228V9.02278C486.584 9.02278 480.812 10.5601 476.6 13.7733C472.353 17.0129 469.781 21.8925 469.781 28.3418H471.781ZM492.928 11.0228C497.189 11.0228 501.54 11.8236 504.985 13.0602L505.661 11.1778C501.996 9.86246 497.416 9.02278 492.928 9.02278V11.0228ZM505 13.0653C506.76 13.6666 507.855 14.4039 508.508 15.1866C509.147 15.9508 509.427 16.8309 509.427 17.8608H511.427C511.427 16.4299 511.023 15.0771 510.043 13.9045C509.079 12.7505 507.622 11.8473 505.646 11.1726L505 13.0653ZM509.427 17.8608C509.427 20.3198 507.597 22.6937 504.685 22.6937V24.6937C508.882 24.6937 511.427 21.2346 511.427 17.8608H509.427ZM504.685 22.6937C504.134 22.6937 503.523 22.5783 502.782 22.3738C502.023 22.1641 501.247 21.8971 500.273 21.5984C498.371 21.0151 496.031 20.4152 493.019 20.4152V22.4152C495.749 22.4152 497.874 22.9546 499.686 23.5105C500.57 23.7814 501.462 24.084 502.25 24.3016C503.056 24.5243 503.869 24.6937 504.685 24.6937V22.6937ZM493.019 20.4152C490.696 20.4152 488.634 20.9456 487.128 22.0882C485.587 23.2581 484.728 24.9971 484.728 27.157H486.728C486.728 25.5801 487.327 24.4482 488.337 23.6814C489.384 22.8873 490.968 22.4152 493.019 22.4152V20.4152ZM484.728 27.157C484.728 30.3771 486.725 32.4871 489.311 34.114C491.849 35.7107 495.283 37.0365 498.473 38.532C501.74 40.064 504.884 41.8227 507.216 44.3548C509.516 46.8526 511.067 50.1485 511.067 54.8633H513.067C513.067 49.6439 511.326 45.8651 508.687 43C506.08 40.1691 502.639 38.2765 499.322 36.7212C495.927 35.1293 492.777 33.9317 490.376 32.4212C488.023 30.9408 486.728 29.3596 486.728 27.157H484.728ZM511.067 54.8633C511.067 61.0341 508.605 65.5921 504.687 68.6327C500.738 71.6972 495.231 73.2759 489.1 73.2759V75.2759C495.546 75.2759 501.523 73.6193 505.913 70.2128C510.334 66.7826 513.067 61.6342 513.067 54.8633H511.067ZM549.448 23.5114V22.5114H548.448V23.5114H549.448ZM534.593 23.5114H535.593V22.5114H534.593V23.5114ZM548.448 23.5114V66.2557H550.448V23.5114H548.448ZM548.448 66.2557C548.448 69.987 545.706 72.7291 541.975 72.7291V74.7291C546.811 74.7291 550.448 71.0915 550.448 66.2557H548.448ZM541.975 72.7291C538.343 72.7291 535.593 69.9951 535.593 66.2557H533.593C533.593 71.0834 537.222 74.7291 541.975 74.7291V72.7291ZM535.593 66.2557V23.5114H533.593V66.2557H535.593ZM534.593 22.5114H522.471V24.5114H534.593V22.5114ZM522.471 22.5114C519.57 22.5114 517.365 20.3259 517.365 17.3139H515.365C515.365 21.4108 518.446 24.5114 522.471 24.5114V22.5114ZM517.365 17.3139C517.365 14.4227 519.54 12.2987 522.471 12.2987V10.2987C518.476 10.2987 515.365 13.2786 515.365 17.3139H517.365ZM522.471 12.2987H561.479V10.2987H522.471V12.2987ZM561.479 12.2987C564.39 12.2987 566.494 14.4029 566.494 17.3139H568.494C568.494 13.2983 565.494 10.2987 561.479 10.2987V12.2987ZM566.494 17.3139C566.494 20.3459 564.36 22.5114 561.479 22.5114V24.5114C565.524 24.5114 568.494 21.3908 568.494 17.3139H566.494ZM561.479 22.5114H549.448V24.5114H561.479V22.5114ZM576.606 17.9519C576.606 14.3118 579.348 11.5696 582.988 11.5696V9.56962C578.244 9.56962 574.606 13.2072 574.606 17.9519H576.606ZM582.988 11.5696C586.711 11.5696 589.371 14.3036 589.371 17.9519H591.371C591.371 13.2154 587.832 9.56962 582.988 9.56962V11.5696ZM589.371 17.9519V66.2557H591.371V17.9519H589.371ZM589.371 66.2557C589.371 69.9202 586.695 72.7291 582.988 72.7291V74.7291C587.848 74.7291 591.371 70.976 591.371 66.2557H589.371ZM582.988 72.7291C579.364 72.7291 576.606 69.912 576.606 66.2557H574.606C574.606 70.9842 578.228 74.7291 582.988 74.7291V72.7291ZM576.606 66.2557V17.9519H574.606V66.2557H576.606ZM632.236 73.4582C622.369 73.4582 614.935 70.4945 609.961 65.238C604.98 59.9729 602.34 52.2739 602.34 42.5595H600.34C600.34 52.6223 603.078 60.8726 608.509 66.6126C613.948 72.3612 621.962 75.4582 632.236 75.4582V73.4582ZM602.34 42.5595C602.34 32.8019 605.024 24.8914 610.083 19.4288C615.13 13.9776 622.657 10.8405 632.601 10.8405V8.84051C622.221 8.84051 614.117 12.1287 608.615 18.0699C603.124 23.9997 600.34 32.4487 600.34 42.5595H602.34ZM632.601 10.8405C642.415 10.8405 649.826 13.8678 654.791 19.1921C659.766 24.5271 662.406 32.298 662.406 42.0127H664.406C664.406 31.9501 661.669 23.6349 656.254 17.8281C650.829 12.0107 642.837 8.84051 632.601 8.84051V10.8405ZM662.406 42.0127C662.406 51.7699 659.722 59.6098 654.678 65.003C649.644 70.3862 642.14 73.4582 632.236 73.4582V75.4582C642.565 75.4582 650.647 72.2416 656.139 66.3691C661.621 60.5067 664.406 52.1237 664.406 42.0127H662.406ZM632.419 63.6101C637.622 63.6101 641.804 61.6186 644.654 57.8472C647.475 54.1148 648.912 48.7459 648.912 42.1038H646.912C646.912 48.4946 645.524 53.3788 643.059 56.6414C640.623 59.865 637.058 61.6101 632.419 61.6101V63.6101ZM648.912 42.1038C648.912 35.4617 647.475 30.0928 644.654 26.3604C641.804 22.589 637.622 20.5975 632.419 20.5975V22.5975C637.058 22.5975 640.623 24.3426 643.059 27.5662C645.524 30.8288 646.912 35.713 646.912 42.1038H648.912ZM632.419 20.5975C627.216 20.5975 623.012 22.5882 620.14 26.3571C617.295 30.0889 615.834 35.4585 615.834 42.1038H617.834C617.834 35.7162 619.243 30.8326 621.73 27.5695C624.189 24.3435 627.779 22.5975 632.419 22.5975V20.5975ZM615.834 42.1038C615.834 48.7491 617.295 54.1186 620.14 57.8505C623.012 61.6194 627.216 63.6101 632.419 63.6101V61.6101C627.779 61.6101 624.189 59.8641 621.73 56.6381C619.243 53.375 617.834 48.4914 617.834 42.1038H615.834ZM691.08 14.9443L691.921 14.4022L691.917 14.3963L691.08 14.9443ZM712.954 48.8481L712.113 49.3902L712.409 49.8481H712.954V48.8481ZM713.045 48.8481V49.8481H714.045V48.8481H713.045ZM710.857 69.6278L710.016 70.1684L710.016 70.1686L710.857 69.6278ZM687.435 33.1722L688.276 32.6316L687.981 32.1722H687.435V33.1722ZM687.344 33.1722V32.1722H686.344V33.1722H687.344ZM680.599 72.7291C678.843 72.7291 677.551 72.1185 676.69 71.1753C675.818 70.22 675.311 68.8361 675.311 67.1671H673.311C673.311 69.2348 673.942 71.1319 675.212 72.5235C676.493 73.9271 678.345 74.7291 680.599 74.7291V72.7291ZM675.311 67.1671V19.6835H673.311V67.1671H675.311ZM675.311 19.6835C675.311 17.0007 676.074 15.0282 677.376 13.7261C678.678 12.4239 680.651 11.6608 683.333 11.6608V9.66076C680.274 9.66076 677.735 10.5381 675.962 12.3119C674.188 14.0857 673.311 16.6246 673.311 19.6835H675.311ZM683.333 11.6608C686.163 11.6608 688.684 13.1116 690.244 15.4923L691.917 14.3963C690.013 11.4909 686.883 9.66076 683.333 9.66076V11.6608ZM690.24 15.4864L712.113 49.3902L713.794 48.306L691.92 14.4022L690.24 15.4864ZM712.954 49.8481H713.045V47.8481H712.954V49.8481ZM714.045 48.8481V17.1316H712.045V48.8481H714.045ZM714.045 17.1316C714.045 13.9563 716.322 11.5696 719.789 11.5696V9.56962C715.236 9.56962 712.045 12.8336 712.045 17.1316H714.045ZM719.789 11.5696C721.414 11.5696 722.72 12.1394 723.62 13.0581C724.522 13.9788 725.078 15.3129 725.078 16.9494H727.078C727.078 14.8491 726.357 12.9934 725.049 11.6584C723.739 10.3214 721.901 9.56962 719.789 9.56962V11.5696ZM725.078 16.9494V65.4354H727.078V16.9494H725.078ZM725.078 65.4354C725.078 67.8993 724.401 69.6627 723.252 70.8119C722.102 71.9611 720.339 72.638 717.875 72.638V74.638C720.697 74.638 723.035 73.8567 724.666 72.2261C726.296 70.5955 727.078 68.2576 727.078 65.4354H725.078ZM717.875 72.638C715.419 72.638 713.171 71.378 711.699 69.0871L710.016 70.1686C711.825 72.9815 714.681 74.638 717.875 74.638V72.638ZM711.699 69.0873L688.276 32.6316L686.593 33.7127L710.016 70.1684L711.699 69.0873ZM687.435 32.1722H687.344V34.1722H687.435V32.1722ZM686.344 33.1722V67.1671H688.344V33.1722H686.344ZM686.344 67.1671C686.344 70.3159 683.82 72.7291 680.599 72.7291V74.7291C684.852 74.7291 688.344 71.4917 688.344 67.1671H686.344Z" fill="white" fill-opacity="0.65" mask="url(#path-4-outside-2_114_637)"/>
</g>
</svg>
